<svg xmlns="http://www.w3.org/2000/svg" xmlns:xlink="http://www.w3.org/1999/xlink" width="340.001" height="675.537" viewBox="0 0 340.001 675.537">
  <defs>
    <clipPath id="clip-path">
      <path id="Trazado_919294" data-name="Trazado 919294" d="M9.724,0h656.09c5.37,0,9.724,5.7,9.724,12.742V327.259c0,7.037-4.353,12.742-9.724,12.742H9.724C4.353,340,0,334.3,0,327.259V12.742C0,5.7,4.353,0,9.724,0Z" transform="translate(-12635 -12918)" fill="#eff6ff"/>
    </clipPath>
    <clipPath id="clip-path-2">
      <rect id="Rectángulo_411462" data-name="Rectángulo 411462" width="530.94" height="530.94" fill="#e0eeff" stroke="#e0eeff" stroke-width="1"/>
    </clipPath>
    <linearGradient id="linear-gradient" x1="1.134" y1="0.5" x2="0.13" y2="0.545" gradientUnits="objectBoundingBox">
      <stop offset="0" stop-color="#fefef5"/>
      <stop offset="0.395" stop-color="#fdfceb"/>
      <stop offset="1" stop-color="#fbfae1"/>
    </linearGradient>
    <linearGradient id="linear-gradient-3" x1="0.5" x2="0.5" y2="1" gradientUnits="objectBoundingBox">
      <stop offset="0" stop-color="#fff"/>
      <stop offset="1" stop-color="#f8f8f8"/>
    </linearGradient>
    <filter id="Elipse_11506" x="235.218" y="69.758" width="89.322" height="89.321" filterUnits="userSpaceOnUse">
      <feOffset dy="3" input="SourceAlpha"/>
      <feGaussianBlur stdDeviation="3" result="blur"/>
      <feFlood flood-opacity="0.161"/>
      <feComposite operator="in" in2="blur"/>
      <feComposite in="SourceGraphic"/>
    </filter>
    <linearGradient id="linear-gradient-5" x1="0.964" y1="0.719" x2="0" y2="0.678" gradientUnits="objectBoundingBox">
      <stop offset="0" stop-color="#fef7ef"/>
      <stop offset="1" stop-color="#fdeedf"/>
    </linearGradient>
    <filter id="Elipse_11506-2" x="235.218" y="229.758" width="89.322" height="89.321" filterUnits="userSpaceOnUse">
      <feOffset dy="3" input="SourceAlpha"/>
      <feGaussianBlur stdDeviation="3" result="blur-2"/>
      <feFlood flood-opacity="0.161"/>
      <feComposite operator="in" in2="blur-2"/>
      <feComposite in="SourceGraphic"/>
    </filter>
    <linearGradient id="linear-gradient-9" x1="0.929" y1="0.565" x2="0.049" y2="0.531" gradientUnits="objectBoundingBox">
      <stop offset="0" stop-color="#f7fbff"/>
      <stop offset="1" stop-color="#eff6ff"/>
    </linearGradient>
    <filter id="Elipse_11506-3" x="235.218" y="383.758" width="89.322" height="89.321" filterUnits="userSpaceOnUse">
      <feOffset dy="3" input="SourceAlpha"/>
      <feGaussianBlur stdDeviation="3" result="blur-3"/>
      <feFlood flood-opacity="0.161"/>
      <feComposite operator="in" in2="blur-3"/>
      <feComposite in="SourceGraphic"/>
    </filter>
    <linearGradient id="linear-gradient-13" x1="0.945" y1="0.653" x2="0" y2="0.707" gradientUnits="objectBoundingBox">
      <stop offset="0" stop-color="#f3fcf7"/>
      <stop offset="0.932" stop-color="#e7faef"/>
      <stop offset="1" stop-color="#e6faee"/>
    </linearGradient>
    <filter id="Elipse_11506-4" x="229.218" y="540.537" width="89.322" height="89.321" filterUnits="userSpaceOnUse">
      <feOffset dy="3" input="SourceAlpha"/>
      <feGaussianBlur stdDeviation="3" result="blur-4"/>
      <feFlood flood-opacity="0.161"/>
      <feComposite operator="in" in2="blur-4"/>
      <feComposite in="SourceGraphic"/>
    </filter>
  </defs>
  <g id="Grupo_1119227" data-name="Grupo 1119227" transform="translate(-3862.673 10849.537)">
    <g id="Enmascarar_grupo_1113783" data-name="Enmascarar grupo 1113783" transform="translate(-8715.326 1785.463) rotate(90)" clip-path="url(#clip-path)">
      <path id="Trazado_919276" data-name="Trazado 919276" d="M12.742,0H872.468A12.742,12.742,0,0,1,885.21,12.742V327.259A12.742,12.742,0,0,1,872.468,340H12.742A12.742,12.742,0,0,1,0,327.259V12.742A12.742,12.742,0,0,1,12.742,0Z" transform="translate(-12635 -12918)" fill="#eff6ff"/>
      <path id="Trazado_919277" data-name="Trazado 919277" d="M296.59,0H274.549a46.094,46.094,0,0,0-46.094,46.094V57.114a57.113,57.113,0,1,0-114.226,0A57.114,57.114,0,0,0,0,57.114V285.569a57.114,57.114,0,0,0,114.228,0,57.113,57.113,0,1,0,114.226,0V296.59a46.094,46.094,0,0,0,46.094,46.094H296.59a46.093,46.093,0,0,0,46.094-46.094V46.094A46.093,46.093,0,0,0,296.59,0" transform="translate(-12917.662 -12577.999) rotate(-90)" fill="#eff6ff" opacity="0.5" style="mix-blend-mode: multiply;isolation: isolate"/>
      <circle id="Elipse_12826" data-name="Elipse 12826" cx="238.709" cy="238.709" r="238.709" transform="translate(-12546.472 -13250.77)" fill="#b2d5ff" opacity="0.29"/>
      <circle id="Elipse_12827" data-name="Elipse 12827" cx="238.709" cy="238.709" r="238.709" transform="translate(-12978.836 -12968.587)" fill="#f7fbff" opacity="0.03"/>
      <g id="Grupo_1119021" data-name="Grupo 1119021" transform="translate(-11737.271 -12485.493) rotate(180)" opacity="0.12">
        <g id="Grupo_1119020" data-name="Grupo 1119020" transform="translate(0)" opacity="0.76" clip-path="url(#clip-path-2)" style="mix-blend-mode: multiply;isolation: isolate">
          <path id="Trazado_919278" data-name="Trazado 919278" d="M265.468,265.468C265.468,411.848,146.38,530.936,0,530.936v-5.255c143.479,0,260.21-116.732,260.21-260.214S143.479,5.255,0,5.255V0C146.38,0,265.468,119.088,265.468,265.468" transform="translate(0 0.003)" fill="#e0eeff" stroke="#e0eeff" stroke-width="1"/>
          <path id="Trazado_919279" data-name="Trazado 919279" d="M230.424,230.424C230.424,357.479,127.055,460.848,0,460.848V455.59c124.157,0,225.166-101.01,225.166-225.166S124.157,5.258,0,5.258V0C127.055,0,230.424,103.369,230.424,230.424" transform="translate(0 35.047)" fill="#e0eeff" stroke="#e0eeff" stroke-width="1"/>
          <path id="Trazado_919280" data-name="Trazado 919280" d="M195.38,195.377c0,107.733-87.647,195.38-195.38,195.38V385.5c104.834,0,190.122-85.288,190.122-190.122S104.834,5.255,0,5.255V0C107.733,0,195.38,87.644,195.38,195.377" transform="translate(0 70.095)" fill="#e0eeff" stroke="#e0eeff" stroke-width="1"/>
          <path id="Trazado_919281" data-name="Trazado 919281" d="M160.332,160.332C160.332,248.74,88.407,320.665,0,320.665V315.41c85.509,0,155.075-69.569,155.075-155.078S85.509,5.258,0,5.258V0C88.407,0,160.332,71.925,160.332,160.332" transform="translate(0 105.139)" fill="#e0eeff" stroke="#e0eeff" stroke-width="1"/>
          <path id="Trazado_919282" data-name="Trazado 919282" d="M125.288,125.288A125.429,125.429,0,0,1,0,250.577v-5.258A120.164,120.164,0,0,0,120.031,125.288,120.164,120.164,0,0,0,0,5.258V0A125.429,125.429,0,0,1,125.288,125.288" transform="translate(0 140.183)" fill="#e0eeff" stroke="#e0eeff" stroke-width="1"/>
          <path id="Trazado_919283" data-name="Trazado 919283" d="M90.241,90.241A90.345,90.345,0,0,1,0,180.482v-5.255A85.082,85.082,0,0,0,84.983,90.241,85.082,85.082,0,0,0,0,5.255V0A90.345,90.345,0,0,1,90.241,90.241" transform="translate(0 175.23)" fill="#e0eeff" stroke="#e0eeff" stroke-width="1"/>
          <path id="Trazado_919284" data-name="Trazado 919284" d="M55.2,55.2A55.261,55.261,0,0,1,0,110.393v-5.258A50,50,0,0,0,49.939,55.2,50,50,0,0,0,0,5.258V0A55.261,55.261,0,0,1,55.2,55.2" transform="translate(0 210.275)" fill="#e0eeff" stroke="#e0eeff" stroke-width="1"/>
          <path id="Trazado_919285" data-name="Trazado 919285" d="M20.153,20.149A20.176,20.176,0,0,1,0,40.3V35.044A14.908,14.908,0,0,0,14.892,20.149,14.908,14.908,0,0,0,0,5.255V0A20.173,20.173,0,0,1,20.153,20.149" transform="translate(0 245.322)" fill="#e0eeff" stroke="#e0eeff" stroke-width="1"/>
          <path id="Trazado_919286" data-name="Trazado 919286" d="M265.468,265.468C265.468,119.088,146.377,0,0,0V5.255c143.479,0,260.21,116.732,260.21,260.214S143.479,525.682,0,525.682v5.255c146.377,0,265.468-119.088,265.468-265.468" transform="translate(265.471 0.003)" fill="#e0eeff" stroke="#e0eeff" stroke-width="1"/>
          <path id="Trazado_919287" data-name="Trazado 919287" d="M230.424,230.424C230.424,103.369,127.055,0,0,0V5.258c124.157,0,225.166,101.01,225.166,225.166S124.157,455.59,0,455.59v5.258c127.055,0,230.424-103.369,230.424-230.424" transform="translate(265.468 35.047)" fill="#e0eeff" stroke="#e0eeff" stroke-width="1"/>
          <path id="Trazado_919288" data-name="Trazado 919288" d="M195.38,195.377C195.38,87.644,107.733,0,0,0V5.255c104.834,0,190.122,85.288,190.122,190.122S104.834,385.5,0,385.5v5.258c107.733,0,195.38-87.647,195.38-195.38" transform="translate(265.468 70.095)" fill="#e0eeff" stroke="#e0eeff" stroke-width="1"/>
          <path id="Trazado_919289" data-name="Trazado 919289" d="M160.332,160.332C160.332,71.925,88.407,0,0,0V5.258c85.509,0,155.075,69.566,155.075,155.075S85.509,315.41,0,315.41v5.255c88.407,0,160.332-71.925,160.332-160.332" transform="translate(265.471 105.139)" fill="#e0eeff" stroke="#e0eeff" stroke-width="1"/>
          <path id="Trazado_919290" data-name="Trazado 919290" d="M125.288,125.288A125.429,125.429,0,0,0,0,0V5.258A120.166,120.166,0,0,1,120.031,125.288,120.166,120.166,0,0,1,0,245.319v5.258A125.429,125.429,0,0,0,125.288,125.288" transform="translate(265.468 140.183)" fill="#e0eeff" stroke="#e0eeff" stroke-width="1"/>
          <path id="Trazado_919291" data-name="Trazado 919291" d="M90.241,90.241A90.343,90.343,0,0,0,0,0V5.255A85.082,85.082,0,0,1,84.983,90.241,85.082,85.082,0,0,1,0,175.227v5.255A90.343,90.343,0,0,0,90.241,90.241" transform="translate(265.471 175.23)" fill="#e0eeff" stroke="#e0eeff" stroke-width="1"/>
          <path id="Trazado_919292" data-name="Trazado 919292" d="M55.2,55.2A55.261,55.261,0,0,0,0,0V5.258A50,50,0,0,1,49.939,55.2,50,50,0,0,1,0,105.136v5.258A55.261,55.261,0,0,0,55.2,55.2" transform="translate(265.468 210.275)" fill="#e0eeff" stroke="#e0eeff" stroke-width="1"/>
          <path id="Trazado_919293" data-name="Trazado 919293" d="M20.153,20.149A20.173,20.173,0,0,0,0,0V5.255A14.911,14.911,0,0,1,14.895,20.149,14.911,14.911,0,0,1,0,35.044V40.3A20.176,20.176,0,0,0,20.153,20.149" transform="translate(265.468 245.322)" fill="#e0eeff" stroke="#e0eeff" stroke-width="1"/>
        </g>
      </g>
    </g>
    <g id="Grupo_1119031" data-name="Grupo 1119031">
      <rect id="Rectángulo_411438" data-name="Rectángulo 411438" width="251.334" height="160" rx="19" transform="translate(3889.847 -10817)" fill="url(#linear-gradient)"/>
      <rect id="Rectángulo_411439" data-name="Rectángulo 411439" width="109" height="37" rx="18" transform="translate(4014.948 -10767.221) rotate(180)" fill="url(#linear-gradient)" style="mix-blend-mode: hard-light;isolation: isolate"/>
      <text id="Transmite_emociones_visuales_inmediatas_requiere_buena_composición_color_y_nitidez._" data-name="Transmite emociones visuales inmediatas; requiere buena composición, color y nitidez.
" transform="translate(3914.397 -10753.221)" fill="#12263f" font-size="14" font-family="Roboto-Regular, Roboto"><tspan x="0" y="15">Transmite emociones </tspan><tspan x="0" y="35">visuales inmediatas; </tspan><tspan x="0" y="55">requiere buena </tspan><tspan x="0" y="75">composición, color y nitidez.</tspan></text>
      <text id="Imágen_fija" data-name="Imágen fija" transform="translate(3920.897 -10795.221)" fill="#12263f" font-size="16" font-family="Roboto-Bold, Roboto" font-weight="700"><tspan x="0" y="17">Imágen fija</tspan></text>
      <g id="Grupo_1119029" data-name="Grupo 1119029" transform="translate(-19.896 5.881)">
        <path id="Trazado_918595" data-name="Trazado 918595" d="M43.551,0A43.551,43.551,0,1,1,0,43.551,43.551,43.551,0,0,1,43.551,0Z" transform="translate(4118.896 -10786.881)" fill="#ebe76a"/>
        <g id="Grupo_1118491" data-name="Grupo 1118491" transform="translate(4126.787 -10779.66)">
          <g transform="matrix(1, 0, 0, 1, -244.22, -75.76)" filter="url(#Elipse_11506)">
            <circle id="Elipse_11506-5" data-name="Elipse 11506" cx="35.661" cy="35.661" r="35.661" transform="translate(244.22 75.76)" fill="url(#linear-gradient-3)"/>
          </g>
        </g>
        <g id="Grupo_1118490" data-name="Grupo 1118490" transform="translate(4200.292 -10720.351) rotate(167)">
          <circle id="Elipse_11506-6" data-name="Elipse 11506" cx="31.555" cy="31.555" r="31.555" transform="translate(0 0)" fill="url(#linear-gradient-3)"/>
        </g>
        <g id="imagen" transform="translate(4139.601 -10768.33)">
          <g id="Grupo_1119022" data-name="Grupo 1119022" transform="translate(4 7.5)">
            <path id="Trazado_919299" data-name="Trazado 919299" d="M39.652,42.792H8.682A4.687,4.687,0,0,1,4,38.11V12.182A4.687,4.687,0,0,1,8.682,7.5h30.97a4.687,4.687,0,0,1,4.682,4.682V38.11A4.687,4.687,0,0,1,39.652,42.792ZM8.682,9.661a2.524,2.524,0,0,0-2.521,2.521V38.11a2.524,2.524,0,0,0,2.521,2.521h30.97a2.524,2.524,0,0,0,2.521-2.521V12.182a2.524,2.524,0,0,0-2.521-2.521Z" transform="translate(-4 -7.5)" fill="#bcb955"/>
          </g>
          <g id="Grupo_1119023" data-name="Grupo 1119023" transform="translate(8.958 19.892)">
            <path id="Trazado_919300" data-name="Trazado 919300" d="M37.338,42.563H13.407a2.52,2.52,0,0,1-2.041-4l9.5-13.115a1.8,1.8,0,0,1,2.916,0l5.045,6.965,1.592-2.2a1.8,1.8,0,0,1,2.918,0l6.045,8.346a2.521,2.521,0,0,1-2.042,4ZM22.321,27.119,13.115,39.831a.359.359,0,0,0,.292.57H37.338a.36.36,0,0,0,.292-.571l-5.755-7.946-1.594,2.2a1.8,1.8,0,0,1-2.916,0Z" transform="translate(-10.884 -24.705)" fill="#bcb955"/>
          </g>
          <g id="Grupo_1119024" data-name="Grupo 1119024" transform="translate(29.208 11.821)">
            <path id="Trazado_919301" data-name="Trazado 919301" d="M44.4,24.3a5.4,5.4,0,1,1,5.4-5.4A5.407,5.407,0,0,1,44.4,24.3Zm0-8.643A3.241,3.241,0,1,0,47.643,18.9,3.245,3.245,0,0,0,44.4,15.661Z" transform="translate(-39 -13.5)" fill="#bcb955"/>
          </g>
        </g>
      </g>
    </g>
    <g id="Grupo_1119032" data-name="Grupo 1119032">
      <rect id="Rectángulo_411440" data-name="Rectángulo 411440" width="252.783" height="147" rx="19" transform="translate(3890.818 -10651)" fill="url(#linear-gradient-5)"/>
      <rect id="Rectángulo_411441" data-name="Rectángulo 411441" width="70.602" height="37" rx="18" transform="translate(3982.419 -10602.001) rotate(180)" fill="url(#linear-gradient)" style="mix-blend-mode: hard-light;isolation: isolate"/>
      <text id="Permite_continuidad_narrativa_combina_imagen_sonido_y_texto_ideal_para_storytelling_emocional._" data-name="Permite continuidad narrativa; combina imagen, sonido y texto; ideal para storytelling emocional.
" transform="translate(3916.818 -10597)" fill="#12263f" font-size="14" font-family="Roboto-Regular, Roboto"><tspan x="0" y="15">Permite continuidad </tspan><tspan x="0" y="35">narrativa; combina imagen, </tspan><tspan x="0" y="55">sonido y texto; ideal para </tspan><tspan x="0" y="75" font-family="Roboto-Italic, Roboto" font-style="italic">storytelling</tspan><tspan y="75" xml:space="preserve"> emocional.</tspan></text>
      <text id="Video" transform="translate(3927.818 -10630)" fill="#12263f" font-size="16" font-family="Roboto-Bold, Roboto" font-weight="700"><tspan x="0" y="17">Video</tspan></text>
      <g id="Grupo_1119030" data-name="Grupo 1119030" transform="translate(-14.428 -0.5)">
        <path id="Trazado_919255" data-name="Trazado 919255" d="M43.551,0A43.551,43.551,0,1,1,0,43.551,43.551,43.551,0,0,1,43.551,0Z" transform="translate(4113.428 -10620.5)" fill="#f8aa5e"/>
        <g id="Grupo_1118971" data-name="Grupo 1118971" transform="translate(4121.318 -10613.279)">
          <g transform="matrix(1, 0, 0, 1, -244.22, -235.76)" filter="url(#Elipse_11506-2)">
            <circle id="Elipse_11506-7" data-name="Elipse 11506" cx="35.661" cy="35.661" r="35.661" transform="translate(244.22 235.76)" fill="url(#linear-gradient-3)"/>
          </g>
        </g>
        <g id="Grupo_1118972" data-name="Grupo 1118972" transform="translate(4194.823 -10553.97) rotate(167)">
          <circle id="Elipse_11506-8" data-name="Elipse 11506" cx="31.555" cy="31.555" r="31.555" transform="translate(0 0)" fill="url(#linear-gradient-3)"/>
        </g>
        <g id="video_3_" data-name="video (3)" transform="translate(4132.53 -10601.001)">
          <path id="Trazado_919304" data-name="Trazado 919304" d="M40.85,6H7.15A2.15,2.15,0,0,0,5,8.15v24.7A2.15,2.15,0,0,0,7.15,35h33.7A2.15,2.15,0,0,0,43,32.85V8.15A2.15,2.15,0,0,0,40.85,6ZM41,32.85a.15.15,0,0,1-.15.15H7.15A.15.15,0,0,1,7,32.85V8.15A.15.15,0,0,1,7.15,8h33.7a.15.15,0,0,1,.15.15Z" fill="#f8aa5e"/>
          <path id="Trazado_919305" data-name="Trazado 919305" d="M42,40H13V39a1,1,0,0,0-1-1H8a1,1,0,0,0-1,1v1H6a1,1,0,0,0,0,2H7v1a1,1,0,0,0,1,1h4a1,1,0,0,0,1-1V42H42a1,1,0,0,0,0-2ZM11,42H9V40h2Z" fill="#f8aa5e"/>
          <path id="Trazado_919306" data-name="Trazado 919306" d="M31.5,19.63l-13-7.5A1,1,0,0,0,17,13V28a1,1,0,0,0,1.5.87l13-7.5a1,1,0,0,0,0-1.73ZM19,26.27V14.73L29,20.5Z" fill="#f8aa5e"/>
        </g>
      </g>
    </g>
    <g id="Grupo_1119033" data-name="Grupo 1119033">
      <rect id="Rectángulo_411442" data-name="Rectángulo 411442" width="252.783" height="147" rx="19" transform="translate(3890.818 -10497)" fill="url(#linear-gradient-9)"/>
      <rect id="Rectángulo_411444" data-name="Rectángulo 411444" width="73.051" height="37" rx="18" transform="translate(3974.868 -10447.779) rotate(180)" fill="url(#linear-gradient)" style="mix-blend-mode: hard-light;isolation: isolate"/>
      <g id="Grupo_1118977" data-name="Grupo 1118977" transform="translate(3457.551 -12142.949)">
        <path id="Trazado_919256" data-name="Trazado 919256" d="M43.551,0A43.551,43.551,0,1,1,0,43.551,43.551,43.551,0,0,1,43.551,0Z" transform="translate(641.449 1675.949)" fill="#b2d5ff"/>
        <g id="Grupo_1118976" data-name="Grupo 1118976" transform="translate(649.34 1683.17)">
          <g transform="matrix(1, 0, 0, 1, -244.22, -389.76)" filter="url(#Elipse_11506-3)">
            <circle id="Elipse_11506-9" data-name="Elipse 11506" cx="35.661" cy="35.661" r="35.661" transform="translate(244.22 389.76)" fill="url(#linear-gradient-3)"/>
          </g>
        </g>
        <g id="Grupo_1118974" data-name="Grupo 1118974" transform="translate(722.845 1742.479) rotate(167)">
          <circle id="Elipse_11506-10" data-name="Elipse 11506" cx="31.555" cy="31.555" r="31.555" transform="translate(0 0)" fill="url(#linear-gradient-3)"/>
        </g>
      </g>
      <text id="Refuerza_la_identidad_sonora_útil_en_podcasts_audios_motivacionales_y_narración_de_marca." data-name="Refuerza la identidad sonora; útil en podcasts, audios motivacionales y narración de marca." transform="translate(3916.818 -10442.779)" fill="#12263f" font-size="14" font-family="Roboto-Regular, Roboto"><tspan x="0" y="15">Refuerza la identidad </tspan><tspan x="0" y="35">sonora; útil en</tspan><tspan y="35" xml:space="preserve" font-family="Roboto-Italic, Roboto" font-style="italic"> podcasts, </tspan><tspan x="0" y="55">audios motivacionales y </tspan></text>
      <text id="Audio" transform="translate(3916.767 -10475.779)" fill="#12263f" font-size="16" font-family="Roboto-Bold, Roboto" font-weight="700"><tspan x="0" y="17">Audio</tspan></text>
      <g id="Line" transform="translate(4119 -10447)">
        <path id="Trazado_919295" data-name="Trazado 919295" d="M42,25.1C42.944,14.488,34.81,4.938,24,5A18.021,18.021,0,0,0,6,23v2.1A5.009,5.009,0,0,0,2,30v8a5.006,5.006,0,0,0,5,5h4a1,1,0,0,0,1-1c-.01-2.156.007-17.265,0-19a12,12,0,0,1,24,0c-.014,1.657.01,16.929,0,19a1,1,0,0,0,1,1h4a5.006,5.006,0,0,0,5-5V30A5.009,5.009,0,0,0,42,25.1ZM10,41H7a3,3,0,0,1-3-3V30a3,3,0,0,1,3-3h3ZM24,9C15.344,9,9.195,16.552,10,25H8C7.117,15.524,14.328,6.942,24,7c9.671-.057,16.884,8.524,16,18H38C38.8,16.552,32.657,9,24,9ZM44,38a3,3,0,0,1-3,3H38V27h3a3,3,0,0,1,3,3Z" fill="#b2d5ff"/>
        <path id="Trazado_919296" data-name="Trazado 919296" d="M25,41V27a1,1,0,0,0-2,0V41A1,1,0,0,0,25,41Z" fill="#b2d5ff"/>
        <path id="Trazado_919297" data-name="Trazado 919297" d="M20,38V30a1,1,0,0,0-2,0v8A1,1,0,0,0,20,38Z" fill="#b2d5ff"/>
        <path id="Trazado_919298" data-name="Trazado 919298" d="M30,38V30a1,1,0,0,0-2,0v8A1,1,0,0,0,30,38Z" fill="#b2d5ff"/>
      </g>
    </g>
    <g id="Grupo_1119034" data-name="Grupo 1119034">
      <rect id="Rectángulo_411443" data-name="Rectángulo 411443" width="241.182" height="147" rx="19" transform="translate(3901.818 -10341)" fill="url(#linear-gradient-13)"/>
      <rect id="Rectángulo_411445" data-name="Rectángulo 411445" width="70.602" height="37" rx="18" transform="translate(3983.419 -10292.001) rotate(180)" fill="url(#linear-gradient)" style="mix-blend-mode: hard-light;isolation: isolate"/>
      <path id="Trazado_919257" data-name="Trazado 919257" d="M43.551,0A43.551,43.551,0,1,1,0,43.551,43.551,43.551,0,0,1,43.551,0Z" transform="translate(4093 -10311)" fill="#85e5aa"/>
      <g id="Grupo_1118973" data-name="Grupo 1118973" transform="translate(4100.891 -10303)">
        <g transform="matrix(1, 0, 0, 1, -238.22, -546.54)" filter="url(#Elipse_11506-4)">
          <circle id="Elipse_11506-11" data-name="Elipse 11506" cx="35.661" cy="35.661" r="35.661" transform="translate(238.22 546.54)" fill="url(#linear-gradient-3)"/>
        </g>
      </g>
      <g id="Grupo_1118975" data-name="Grupo 1118975" transform="translate(4174.396 -10243.507) rotate(167)">
        <circle id="Elipse_11506-12" data-name="Elipse 11506" cx="31.555" cy="31.555" r="31.555" transform="translate(0 0)" fill="url(#linear-gradient-3)"/>
      </g>
      <text id="Cimiento_estructural_de_toda_narrativa_debe_adaptarse_al_formato_y_audiencia._" data-name="Cimiento estructural de toda narrativa; debe adaptarse al formato y audiencia.
" transform="translate(3927.818 -10287.001)" fill="#12263f" font-size="14" font-family="Roboto-Regular, Roboto"><tspan x="0" y="15">Cimiento estructural de </tspan><tspan x="0" y="35">toda narrativa; debe </tspan><tspan x="0" y="55">adaptarse al formato y </tspan><tspan x="0" y="75">audiencia.</tspan></text>
      <text id="Texto" transform="translate(3927.767 -10320.001)" fill="#12263f" font-size="16" font-family="Roboto-Bold, Roboto" font-weight="700"><tspan x="0" y="17">Texto</tspan></text>
      <g id="_25-text" data-name="25-text" transform="translate(4116.603 -10283.765)">
        <rect id="Rectángulo_411463" data-name="Rectángulo 411463" width="2" height="1" transform="translate(22 11)" fill="#85e5aa"/>
        <path id="Trazado_919302" data-name="Trazado 919302" d="M31.572,42.51H11.823A.823.823,0,0,1,11,41.687V36.749a.823.823,0,0,1,.823-.823h5.76V32.635h1.646v4.114a.823.823,0,0,1-.823.823h-5.76v3.292h18.1V37.572h-5.76a.823.823,0,0,1-.823-.823V17h1.646V35.927h5.76a.823.823,0,0,1,.823.823v4.937A.823.823,0,0,1,31.572,42.51Z" transform="translate(-1.948 -3.011)" fill="#85e5aa"/>
        <path id="Trazado_919303" data-name="Trazado 919303" d="M17.281,27.978H15.635V6.583H8.049L7.381,9.251a.823.823,0,0,1-.8.624H.823A.823.823,0,0,1,.035,8.816L2.5.587A.823.823,0,0,1,3.292,0H36.207A.823.823,0,0,1,37,.587l2.469,8.229a.823.823,0,0,1-.788,1.059h-5.76a.823.823,0,0,1-.8-.624L31.45,6.583H23.864V9.052H22.218V5.76a.823.823,0,0,1,.823-.823h9.052a.823.823,0,0,1,.8.624l.667,2.668H37.57L35.6,1.646H3.9L1.929,8.229H5.94l.667-2.668a.823.823,0,0,1,.8-.624h9.052a.823.823,0,0,1,.823.823Z" fill="#85e5aa"/>
      </g>
    </g>
  </g>
</svg>
