<svg xmlns="http://www.w3.org/2000/svg" xmlns:xlink="http://www.w3.org/1999/xlink" width="340.001" height="656.378" viewBox="0 0 340.001 656.378">
  <defs>
    <clipPath id="clip-path">
      <rect id="Rectángulo_401216" data-name="Rectángulo 401216" width="11.079" height="9.761" fill="none" stroke="#b2d5ff" stroke-width="1"/>
    </clipPath>
    <clipPath id="clip-path-3">
      <rect id="Rectángulo_401216-3" data-name="Rectángulo 401216" width="11.079" height="9.761" fill="none" stroke="#85e5aa" stroke-width="1"/>
    </clipPath>
    <clipPath id="clip-path-5">
      <rect id="Rectángulo_401216-5" data-name="Rectángulo 401216" width="11.079" height="9.761" fill="none" stroke="#ebe76a" stroke-width="1"/>
    </clipPath>
  </defs>
  <g id="Grupo_1119224" data-name="Grupo 1119224" transform="translate(-6412 9884.077)">
    <g id="Grupo_1119223" data-name="Grupo 1119223">
      <path id="Trazado_919354" data-name="Trazado 919354" d="M9.448,0H646.93c5.218,0,9.448,5.7,9.448,12.742V327.259c0,7.037-4.23,12.742-9.448,12.742H9.448C4.23,340,0,334.3,0,327.259V12.742C0,5.7,4.23,0,9.448,0Z" transform="translate(6412 -9227.699) rotate(-90)" fill="#eff6ff"/>
      <path id="Trazado_919372" data-name="Trazado 919372" d="M8.934,0H611.771c4.934,0,8.934,5.7,8.934,12.742V327.259c0,7.037-4,12.742-8.934,12.742H8.934C4,340,0,334.3,0,327.259V12.742C0,5.7,4,0,8.934,0Z" transform="translate(6412 -9227.699) rotate(-90)" fill="#eff6ff"/>
    </g>
    <text id="_Si_tu_historia_empezara_con_una_pregunta_" data-name="¿Si tu historia empezara con una pregunta?" transform="translate(6493.076 -9745.072)" fill="#12263f" font-size="16" font-family="Roboto-Regular, Roboto"><tspan x="0" y="17">¿Si tu historia empezara </tspan><tspan x="0" y="42">con una pregunta?</tspan></text>
    <g id="Rectángulo_411485" data-name="Rectángulo 411485" transform="translate(6477 -9757)" fill="none" stroke="#b2d5ff" stroke-width="1">
      <rect width="210" height="69.064" rx="18" stroke="none"/>
      <rect x="0.5" y="0.5" width="209" height="68.064" rx="17.5" fill="none"/>
    </g>
    <text id="Rompimiento_de_expectativas_en_pocos_segundos." data-name="Rompimiento de expectativas en pocos segundos." transform="translate(6475.75 -9586.279)" fill="#12263f" font-size="16" font-family="Roboto-Regular, Roboto"><tspan x="0" y="17">Rompimiento de expectativas </tspan><tspan x="0" y="42">en pocos segundos.</tspan></text>
    <g id="Rectángulo_411482" data-name="Rectángulo 411482" transform="translate(6453 -9598)" fill="none" stroke="#85e5aa" stroke-width="1">
      <rect width="257.551" height="67.42" rx="18" stroke="none"/>
      <rect x="0.5" y="0.5" width="256.551" height="66.42" rx="17.5" fill="none"/>
    </g>
    <text id="Conexión_desde_el_primer_mensaje_con_valores_o_experiencias_personales_Heath_Heath_2007_" data-name="Conexión desde el primer mensaje con valores o experiencias personales (Heath &amp; Heath, 2007)" transform="translate(6454.5 -9425.203)" fill="#12263f" font-size="16" font-family="Roboto-Regular, Roboto"><tspan x="0" y="17">Conexión desde el primer mensaje </tspan><tspan x="0" y="42">con valores o experiencias </tspan><tspan x="0" y="67">personales (Heath &amp; Heath, 2007)</tspan></text>
    <g id="Rectángulo_411486" data-name="Rectángulo 411486" transform="translate(6446 -9441)" fill="none" stroke="#ebe76a" stroke-width="1">
      <rect width="271.283" height="97.064" rx="18" stroke="none"/>
      <rect x="0.5" y="0.5" width="270.283" height="96.064" rx="17.5" fill="none"/>
    </g>
    <rect id="Rectángulo_411484" data-name="Rectángulo 411484" width="210.975" height="39.932" rx="18" transform="translate(6476 -9820)" fill="#b2d5ff"/>
    <text id="Titulares_con_intriga" data-name="Titulares con intriga" transform="translate(6500.076 -9792.468)" fill="#12263f" font-size="18" font-family="Roboto-Bold, Roboto" font-weight="700"><tspan x="0" y="0">Titulares con intriga</tspan></text>
    <g id="Rectángulo_411483" data-name="Rectángulo 411483" transform="translate(6502 -9664)" fill="#85e5aa" stroke="#85e5aa" stroke-width="1">
      <rect width="159" height="42.735" rx="21" stroke="none"/>
      <rect x="0.5" y="0.5" width="158" height="41.735" rx="20.5" fill="none"/>
    </g>
    <text id="Giros_narrativos" data-name="Giros narrativos" transform="translate(6519 -9636.633)" fill="#12263f" font-size="18" font-family="Roboto-Bold, Roboto" font-weight="700"><tspan x="0" y="0">Giros narrativos</tspan></text>
    <rect id="Rectángulo_411488" data-name="Rectángulo 411488" width="173.225" height="43.064" rx="18" transform="translate(6495 -9508)" fill="#ebe76a"/>
    <text id="Anclaje_emocional" data-name="Anclaje emocional" transform="translate(6504.301 -9480.467)" fill="#12263f" font-size="18" font-family="Roboto-Bold, Roboto" font-weight="700"><tspan x="0" y="0">Anclaje emocional</tspan></text>
    <rect id="Rectángulo_411487" data-name="Rectángulo 411487" width="198.449" height="43.064" rx="18" transform="translate(6482 -9315)" fill="#f8aa5e"/>
    <text id="Acción_diferenciada" data-name="Acción diferenciada" transform="translate(6502 -9287.467)" fill="#12263f" font-size="18" font-family="Roboto-Bold, Roboto" font-weight="700"><tspan x="0" y="0">Acción diferenciada</tspan></text>
    <path id="Trazado_873496" data-name="Trazado 873496" d="M0,0V21.267" transform="translate(6581.539 -9780.067)" fill="none" stroke="#b2d5ff" stroke-width="2"/>
    <g id="Grupo_1099074" data-name="Grupo 1099074" transform="translate(6576 -9770.067)" clip-path="url(#clip-path)">
      <path id="Trazado_873497" data-name="Trazado 873497" d="M10.735,0A11.037,11.037,0,0,0,5.368,9.475,11.037,11.037,0,0,0,0,0" transform="translate(0.172 0.286)" fill="none" stroke="#b2d5ff" stroke-miterlimit="10" stroke-width="2"/>
    </g>
    <path id="Trazado_873496-2" data-name="Trazado 873496" d="M0,0V21.267" transform="translate(6581.539 -9686.135)" fill="none" stroke="#b2d5ff" stroke-width="2"/>
    <g id="Grupo_1099074-2" data-name="Grupo 1099074" transform="translate(6576 -9676.135)" clip-path="url(#clip-path)">
      <path id="Trazado_873497-2" data-name="Trazado 873497" d="M10.735,0A11.037,11.037,0,0,0,5.368,9.475,11.037,11.037,0,0,0,0,0" transform="translate(0.172 0.286)" fill="none" stroke="#b2d5ff" stroke-miterlimit="10" stroke-width="2"/>
    </g>
    <path id="Trazado_873496-3" data-name="Trazado 873496" d="M0,0V21.267" transform="translate(6581.539 -9622.449)" fill="none" stroke="#85e5aa" stroke-width="2"/>
    <g id="Grupo_1099074-3" data-name="Grupo 1099074" transform="translate(6576 -9612.449)" clip-path="url(#clip-path-3)">
      <path id="Trazado_873497-3" data-name="Trazado 873497" d="M10.735,0A11.037,11.037,0,0,0,5.368,9.475,11.037,11.037,0,0,0,0,0" transform="translate(0.172 0.286)" fill="none" stroke="#85e5aa" stroke-miterlimit="10" stroke-width="2"/>
    </g>
    <path id="Trazado_873496-4" data-name="Trazado 873496" d="M0,0V21.267" transform="translate(6581.539 -9529.712)" fill="none" stroke="#85e5aa" stroke-width="2"/>
    <g id="Grupo_1099074-4" data-name="Grupo 1099074" transform="translate(6576 -9519.712)" clip-path="url(#clip-path-3)">
      <path id="Trazado_873497-4" data-name="Trazado 873497" d="M10.735,0A11.037,11.037,0,0,0,5.368,9.475,11.037,11.037,0,0,0,0,0" transform="translate(0.172 0.286)" fill="none" stroke="#85e5aa" stroke-miterlimit="10" stroke-width="2"/>
    </g>
    <path id="Trazado_873496-5" data-name="Trazado 873496" d="M0,0V21.267" transform="translate(6581.539 -9464.936)" fill="none" stroke="#ebe76a" stroke-width="2"/>
    <g id="Grupo_1099074-5" data-name="Grupo 1099074" transform="translate(6576 -9454.936)" clip-path="url(#clip-path-5)">
      <path id="Trazado_873497-5" data-name="Trazado 873497" d="M10.735,0A11.037,11.037,0,0,0,5.368,9.475,11.037,11.037,0,0,0,0,0" transform="translate(0.172 0.286)" fill="none" stroke="#ebe76a" stroke-miterlimit="10" stroke-width="2"/>
    </g>
    <path id="Trazado_873496-6" data-name="Trazado 873496" d="M0,0V21.267" transform="translate(6581.539 -9343.936)" fill="none" stroke="#ebe76a" stroke-width="2"/>
    <g id="Grupo_1099074-6" data-name="Grupo 1099074" transform="translate(6576 -9333.936)" clip-path="url(#clip-path-5)">
      <path id="Trazado_873497-6" data-name="Trazado 873497" d="M10.735,0A11.037,11.037,0,0,0,5.368,9.475,11.037,11.037,0,0,0,0,0" transform="translate(0.172 0.286)" fill="none" stroke="#ebe76a" stroke-miterlimit="10" stroke-width="2"/>
    </g>
  </g>
</svg>
