<svg xmlns="http://www.w3.org/2000/svg" xmlns:xlink="http://www.w3.org/1999/xlink" width="1240" height="594" viewBox="0 0 1240 594">
  <defs>
    <clipPath id="clip-path">
      <rect id="Rectángulo_401216" data-name="Rectángulo 401216" width="21.329" height="18.792" fill="none" stroke="#114d74" stroke-width="1"/>
    </clipPath>
    <clipPath id="clip-path-8">
      <rect id="Rectángulo_401216-8" data-name="Rectángulo 401216" width="14.828" height="13.065" fill="none" stroke="#114d74" stroke-width="1"/>
    </clipPath>
  </defs>
  <g id="Grupo_1119224" data-name="Grupo 1119224" transform="translate(-180.333 -730)">
    <g id="Grupo_1119223" data-name="Grupo 1119223">
      <path id="Trazado_919710" data-name="Trazado 919710" d="M20,0H1220a20,20,0,0,1,20,20V574a20,20,0,0,1-20,20H20A20,20,0,0,1,0,574V20A20,20,0,0,1,20,0Z" transform="translate(180.333 730)" fill="#f6f6f6"/>
      <path id="Trazado_917854" data-name="Trazado 917854" d="M11.909,0h255.7c6.577,0,11.909,3.355,11.909,7.495V50.418c0,4.139-5.332,7.495-11.909,7.495H11.909C5.332,57.913,0,54.558,0,50.418V7.495C0,3.355,5.332,0,11.909,0Z" transform="translate(671.333 775)" fill="#b2d5ff"/>
      <g id="Grupo_1113588" data-name="Grupo 1113588" transform="translate(792.837 832.913)">
        <path id="Trazado_873496" data-name="Trazado 873496" d="M-11801-8646v71.99" transform="translate(11811.664 8646.002)" fill="none" stroke="#114d74" stroke-width="2"/>
        <g id="Grupo_1099075" data-name="Grupo 1099075" transform="translate(0 56.208)">
          <g id="Grupo_1099074" data-name="Grupo 1099074" clip-path="url(#clip-path)">
            <path id="Trazado_873497" data-name="Trazado 873497" d="M21.182.857A21.249,21.249,0,0,0,10.848,19.1,21.248,21.248,0,0,0,.514.857" transform="translate(-0.184 -0.306)" fill="none" stroke="#114d74" stroke-miterlimit="10" stroke-width="2"/>
          </g>
        </g>
      </g>
      <g id="Grupo_1113589" data-name="Grupo 1113589" transform="translate(484.126 909.17)">
        <path id="Trazado_873496-2" data-name="Trazado 873496" d="M-11801-8646v39.077" transform="translate(11811.664 8646.002)" fill="none" stroke="#114d74" stroke-width="2"/>
        <g id="Grupo_1099075-2" data-name="Grupo 1099075" transform="translate(0 23.294)">
          <g id="Grupo_1099074-2" data-name="Grupo 1099074" clip-path="url(#clip-path)">
            <path id="Trazado_873497-2" data-name="Trazado 873497" d="M21.182.857A21.249,21.249,0,0,0,10.848,19.1,21.248,21.248,0,0,0,.514.857" transform="translate(-0.184 -0.306)" fill="none" stroke="#114d74" stroke-miterlimit="10" stroke-width="2"/>
          </g>
        </g>
      </g>
      <g id="Grupo_1113590" data-name="Grupo 1113590" transform="translate(682.917 909.913)">
        <path id="Trazado_873496-3" data-name="Trazado 873496" d="M-11801-8646v39.077" transform="translate(11811.664 8646.002)" fill="none" stroke="#114d74" stroke-width="2"/>
        <g id="Grupo_1099075-3" data-name="Grupo 1099075" transform="translate(0 23.294)">
          <g id="Grupo_1099074-3" data-name="Grupo 1099074" clip-path="url(#clip-path)">
            <path id="Trazado_873497-3" data-name="Trazado 873497" d="M21.182.857A21.249,21.249,0,0,0,10.848,19.1,21.248,21.248,0,0,0,.514.857" transform="translate(-0.184 -0.306)" fill="none" stroke="#114d74" stroke-miterlimit="10" stroke-width="2"/>
          </g>
        </g>
      </g>
      <g id="Grupo_1113591" data-name="Grupo 1113591" transform="translate(865.554 907.413)">
        <path id="Trazado_873496-4" data-name="Trazado 873496" d="M-11801-8646v39.077" transform="translate(11811.664 8646.002)" fill="none" stroke="#114d74" stroke-width="2"/>
        <g id="Grupo_1099075-4" data-name="Grupo 1099075" transform="translate(0 23.294)">
          <g id="Grupo_1099074-4" data-name="Grupo 1099074" clip-path="url(#clip-path)">
            <path id="Trazado_873497-4" data-name="Trazado 873497" d="M21.182.857A21.249,21.249,0,0,0,10.848,19.1,21.248,21.248,0,0,0,.514.857" transform="translate(-0.184 -0.306)" fill="none" stroke="#114d74" stroke-miterlimit="10" stroke-width="2"/>
          </g>
        </g>
      </g>
      <g id="Grupo_1113592" data-name="Grupo 1113592" transform="translate(1035.517 907.413)">
        <path id="Trazado_873496-5" data-name="Trazado 873496" d="M-11801-8646v39.077" transform="translate(11811.664 8646.002)" fill="none" stroke="#114d74" stroke-width="2"/>
        <g id="Grupo_1099075-5" data-name="Grupo 1099075" transform="translate(0 23.294)">
          <g id="Grupo_1099074-5" data-name="Grupo 1099074" clip-path="url(#clip-path)">
            <path id="Trazado_873497-5" data-name="Trazado 873497" d="M21.182.857A21.249,21.249,0,0,0,10.848,19.1,21.248,21.248,0,0,0,.514.857" transform="translate(-0.184 -0.306)" fill="none" stroke="#114d74" stroke-miterlimit="10" stroke-width="2"/>
          </g>
        </g>
      </g>
      <g id="Grupo_1113594" data-name="Grupo 1113594" transform="translate(1234.308 909.913)">
        <path id="Trazado_873496-6" data-name="Trazado 873496" d="M-11801-8646v39.077" transform="translate(11811.664 8646.002)" fill="none" stroke="#114d74" stroke-width="2"/>
        <g id="Grupo_1099075-6" data-name="Grupo 1099075" transform="translate(0 23.294)">
          <g id="Grupo_1099074-6" data-name="Grupo 1099074" clip-path="url(#clip-path)">
            <path id="Trazado_873497-6" data-name="Trazado 873497" d="M21.182.857A21.249,21.249,0,0,0,10.848,19.1,21.248,21.248,0,0,0,.514.857" transform="translate(-0.184 -0.306)" fill="none" stroke="#114d74" stroke-miterlimit="10" stroke-width="2"/>
          </g>
        </g>
      </g>
      <path id="Trazado_919712" data-name="Trazado 919712" d="M4.484-1.023a2.082,2.082,0,0,0,1.352-.469,1.649,1.649,0,0,0,.641-1.172H7.844a2.621,2.621,0,0,1-.5,1.383A3.293,3.293,0,0,1,6.113-.234,3.55,3.55,0,0,1,4.484.156,3.482,3.482,0,0,1,1.738-1,4.59,4.59,0,0,1,.719-4.148v-.242a5.089,5.089,0,0,1,.453-2.2,3.451,3.451,0,0,1,1.3-1.492,3.7,3.7,0,0,1,2-.531,3.39,3.39,0,0,1,2.363.852,3.043,3.043,0,0,1,1,2.211H6.477a1.992,1.992,0,0,0-.621-1.348,1.932,1.932,0,0,0-1.379-.527,2.023,2.023,0,0,0-1.707.793,3.724,3.724,0,0,0-.605,2.293v.273a3.65,3.65,0,0,0,.6,2.25A2.033,2.033,0,0,0,4.484-1.023ZM9.086-4.3a4.993,4.993,0,0,1,.488-2.234A3.643,3.643,0,0,1,10.934-8.07a3.7,3.7,0,0,1,1.988-.539,3.565,3.565,0,0,1,2.793,1.2,4.6,4.6,0,0,1,1.066,3.18v.1a5.036,5.036,0,0,1-.473,2.215A3.589,3.589,0,0,1,14.957-.391a3.743,3.743,0,0,1-2.02.547,3.556,3.556,0,0,1-2.785-1.2A4.575,4.575,0,0,1,9.086-4.2Zm1.453.172a3.616,3.616,0,0,0,.652,2.258,2.088,2.088,0,0,0,1.746.852,2.075,2.075,0,0,0,1.75-.863A3.955,3.955,0,0,0,15.336-4.3a3.61,3.61,0,0,0-.66-2.254,2.1,2.1,0,0,0-1.754-.863A2.075,2.075,0,0,0,11.2-6.57,3.925,3.925,0,0,0,10.539-4.133Zm9.422-4.32.047,1.063a3.08,3.08,0,0,1,2.531-1.219q2.68,0,2.7,3.023V0H23.8V-5.594a1.946,1.946,0,0,0-.418-1.352A1.675,1.675,0,0,0,22.1-7.383a2.086,2.086,0,0,0-1.234.375,2.546,2.546,0,0,0-.828.984V0H18.594V-8.453ZM29.383-10.5v2.047h1.578v1.117H29.383v5.242a1.171,1.171,0,0,0,.211.762.888.888,0,0,0,.719.254A3.5,3.5,0,0,0,31-1.172V0a4.19,4.19,0,0,1-1.109.156A1.8,1.8,0,0,1,28.43-.43a2.517,2.517,0,0,1-.492-1.664V-7.336H26.4V-8.453h1.539V-10.5ZM34.219,0H32.773V-8.453h1.445ZM32.656-10.7a.863.863,0,0,1,.215-.594.807.807,0,0,1,.637-.242.819.819,0,0,1,.641.242.854.854,0,0,1,.219.594.826.826,0,0,1-.219.586.834.834,0,0,1-.641.234.821.821,0,0,1-.637-.234A.834.834,0,0,1,32.656-10.7ZM40.039.156a3.693,3.693,0,0,1-2.8-1.129,4.19,4.19,0,0,1-1.078-3.02v-.266a5.073,5.073,0,0,1,.48-2.246,3.748,3.748,0,0,1,1.344-1.547,3.378,3.378,0,0,1,1.871-.559,3.166,3.166,0,0,1,2.563,1.086,4.7,4.7,0,0,1,.914,3.109v.6H37.609a3,3,0,0,0,.73,2.02,2.3,2.3,0,0,0,1.777.77,2.517,2.517,0,0,0,1.3-.312,3.259,3.259,0,0,0,.93-.828l.883.688A3.55,3.55,0,0,1,40.039.156Zm-.18-7.578a1.928,1.928,0,0,0-1.469.637A3.1,3.1,0,0,0,37.656-5h4.234v-.109A2.753,2.753,0,0,0,41.3-6.816,1.815,1.815,0,0,0,39.859-7.422Zm6.516-1.031.047,1.063a3.08,3.08,0,0,1,2.531-1.219q2.68,0,2.7,3.023V0H50.211V-5.594a1.946,1.946,0,0,0-.418-1.352,1.675,1.675,0,0,0-1.277-.437,2.086,2.086,0,0,0-1.234.375,2.546,2.546,0,0,0-.828.984V0H45.008V-8.453ZM57.344.156a3.693,3.693,0,0,1-2.8-1.129,4.19,4.19,0,0,1-1.078-3.02v-.266a5.073,5.073,0,0,1,.48-2.246,3.748,3.748,0,0,1,1.344-1.547,3.378,3.378,0,0,1,1.871-.559,3.166,3.166,0,0,1,2.563,1.086,4.7,4.7,0,0,1,.914,3.109v.6H54.914a3,3,0,0,0,.73,2.02,2.3,2.3,0,0,0,1.777.77,2.517,2.517,0,0,0,1.3-.312,3.259,3.259,0,0,0,.93-.828l.883.688A3.55,3.55,0,0,1,57.344.156Zm-.18-7.578a1.928,1.928,0,0,0-1.469.637A3.1,3.1,0,0,0,54.961-5H59.2v-.109A2.753,2.753,0,0,0,58.6-6.816,1.815,1.815,0,0,0,57.164-7.422Z" transform="translate(810.001 866.413)" fill="#12263f"/>
      <g id="Grupo_1113595" data-name="Grupo 1113595" transform="translate(301.999 907.913)">
        <path id="Trazado_873496-7" data-name="Trazado 873496" d="M-11801-8605.668V-8646h932.31" transform="translate(11811.665 8646.002)" fill="none" stroke="#114d74" stroke-width="2"/>
        <g id="Grupo_1099075-7" data-name="Grupo 1099075" transform="translate(0 24.551)">
          <g id="Grupo_1099074-7" data-name="Grupo 1099074" clip-path="url(#clip-path)">
            <path id="Trazado_873497-7" data-name="Trazado 873497" d="M21.182.857A21.249,21.249,0,0,0,10.848,19.1,21.248,21.248,0,0,0,.514.857" transform="translate(-0.184 -0.306)" fill="none" stroke="#114d74" stroke-miterlimit="10" stroke-width="2"/>
          </g>
        </g>
      </g>
      <g id="Grupo_1113656" data-name="Grupo 1113656" transform="translate(-29 0.743)">
        <g id="Grupo_1113640" data-name="Grupo 1113640" transform="translate(132.832)">
          <rect id="Rectángulo_411171" data-name="Rectángulo 411171" width="142.471" height="69.148" rx="11" transform="translate(876.501 951.257)" fill="#85e5aa"/>
          <text id="Herramientas_de_producción" data-name="Herramientas 
de producción" transform="translate(945.185 980.767)" fill="#12263f" font-size="16" font-family="Roboto-Bold, Roboto" font-weight="700"><tspan x="-50.934" y="0">Herramientas </tspan><tspan x="-51.082" y="24">de producción</tspan></text>
        </g>
        <rect id="Rectángulo_411221" data-name="Rectángulo 411221" width="129.525" height="57.559" rx="11" transform="translate(1032.833 1071.063)" fill="#e6faee"/>
        <rect id="Rectángulo_411219" data-name="Rectángulo 411219" width="126.027" height="57.559" rx="11" transform="translate(1034.581 1130.885)" fill="#e6faee"/>
        <text id="Texto_imagen_y_sonido" data-name="Texto, imagen
 y sonido" transform="translate(1052.036 1093.53)" fill="#12263f" font-size="16" font-family="Roboto-Regular, Roboto"><tspan x="0" y="0">Texto, imagen</tspan><tspan x="0" y="24" xml:space="preserve"> y sonido</tspan></text>
        <text id="Calidad_de_los_recursos_" data-name="Calidad de 
los recursos 
" transform="translate(1055.021 1153.352)" fill="#12263f" font-size="16" font-family="Roboto-Regular, Roboto"><tspan x="0" y="0">Calidad de </tspan><tspan x="0" y="24">los recursos </tspan><tspan x="0" y="48"></tspan></text>
        <text id="contiene" transform="translate(1051.185 1036.662)" fill="#12263f" font-size="16" font-family="Roboto-Regular, Roboto"><tspan x="0" y="0">contiene</tspan></text>
        <path id="Trazado_917887" data-name="Trazado 917887" d="M-10775.877-8792.706v22.185h-74.485v95.891" transform="translate(11859.695 9833.964)" fill="none" stroke="#114d74" stroke-width="2"/>
        <g id="Grupo_1113650" data-name="Grupo 1113650" transform="translate(1009.333 1107.256) rotate(-90)">
          <path id="Trazado_873496-8" data-name="Trazado 873496" d="M-11801-8646v19.46" transform="translate(11808.414 8646.002)" fill="none" stroke="#114d74" stroke-width="2"/>
          <g id="Grupo_1099075-8" data-name="Grupo 1099075" transform="translate(0 8.488)">
            <g id="Grupo_1099074-8" data-name="Grupo 1099074" clip-path="url(#clip-path-8)">
              <path id="Trazado_873497-8" data-name="Trazado 873497" d="M14.883.857A14.773,14.773,0,0,0,7.7,13.539,14.772,14.772,0,0,0,.514.857" transform="translate(-0.284 -0.474)" fill="none" stroke="#114d74" stroke-miterlimit="10" stroke-width="2"/>
            </g>
          </g>
        </g>
        <g id="Grupo_1113651" data-name="Grupo 1113651" transform="translate(1009.333 1167.078) rotate(-90)">
          <path id="Trazado_873496-9" data-name="Trazado 873496" d="M-11801-8646v19.46" transform="translate(11808.414 8646.002)" fill="none" stroke="#114d74" stroke-width="2"/>
          <g id="Grupo_1099075-9" data-name="Grupo 1099075" transform="translate(0 8.488)">
            <g id="Grupo_1099074-9" data-name="Grupo 1099074" clip-path="url(#clip-path-8)">
              <path id="Trazado_873497-9" data-name="Trazado 873497" d="M14.883.857A14.773,14.773,0,0,0,7.7,13.539,14.772,14.772,0,0,0,.514.857" transform="translate(-0.284 -0.474)" fill="none" stroke="#114d74" stroke-miterlimit="10" stroke-width="2"/>
            </g>
          </g>
        </g>
      </g>
      <g id="Grupo_1113655" data-name="Grupo 1113655" transform="translate(-45.225 0.743)">
        <rect id="Rectángulo_411222" data-name="Rectángulo 411222" width="115.941" height="80.279" rx="11" transform="translate(1237.333 1071.062)" fill="#fef7ef"/>
        <rect id="Rectángulo_411225" data-name="Rectángulo 411225" width="117.027" height="57.559" rx="11" transform="translate(1239.274 1153.934)" fill="#fef7ef"/>
        <rect id="Rectángulo_411226" data-name="Rectángulo 411226" width="98.264" height="57.559" rx="11" transform="translate(1239.274 1216.934)" fill="#fef7ef"/>
        <text id="Redacción_persuasiva_y_creativa" data-name="Redacción 
persuasiva 
y creativa" transform="translate(1258.292 1093.529)" fill="#12263f" font-size="16" font-family="Roboto-Regular, Roboto"><tspan x="0" y="0">Redacción </tspan><tspan x="0" y="24">persuasiva </tspan><tspan x="0" y="48">y creativa</tspan></text>
        <text id="Captación_de_atención" data-name="Captación 
de atención" transform="translate(1259.521 1176.4)" fill="#12263f" font-size="16" font-family="Roboto-Regular, Roboto"><tspan x="0" y="0">Captación </tspan><tspan x="0" y="24">de atención</tspan></text>
        <text id="Mensajes_breves" data-name="Mensajes 
breves" transform="translate(1259.521 1239.4)" fill="#12263f" font-size="16" font-family="Roboto-Regular, Roboto"><tspan x="0" y="0">Mensajes </tspan><tspan x="0" y="24">breves</tspan></text>
        <g id="Grupo_1113644" data-name="Grupo 1113644" transform="translate(-0.484)">
          <rect id="Rectángulo_411183" data-name="Rectángulo 411183" width="119.471" height="69.148" rx="11" transform="translate(1225.817 951.257)" fill="#f8aa5e"/>
          <text id="Técnicas_de_escritura" data-name="Técnicas 
de escritura" transform="translate(1283.501 980.767)" fill="#12263f" font-size="16" font-family="Roboto-Bold, Roboto" font-weight="700"><tspan x="-34.613" y="0">Técnicas </tspan><tspan x="-42.742" y="24">de escritura</tspan></text>
        </g>
        <text id="contiene-2" data-name="contiene" transform="translate(1257.44 1036.662)" fill="#12263f" font-size="16" font-family="Roboto-Regular, Roboto"><tspan x="0" y="0">contiene</tspan></text>
        <path id="Trazado_917888" data-name="Trazado 917888" d="M-10775.877-8792.706v22.185h-74.485v181.9" transform="translate(12065.008 9834.625)" fill="none" stroke="#114d74" stroke-width="2"/>
        <g id="Grupo_1113652" data-name="Grupo 1113652" transform="translate(1214.558 1118.615) rotate(-90)">
          <path id="Trazado_873496-10" data-name="Trazado 873496" d="M-11801-8646v19.46" transform="translate(11808.414 8646.002)" fill="none" stroke="#114d74" stroke-width="2"/>
          <g id="Grupo_1099075-10" data-name="Grupo 1099075" transform="translate(0 8.488)">
            <g id="Grupo_1099074-10" data-name="Grupo 1099074" clip-path="url(#clip-path-8)">
              <path id="Trazado_873497-10" data-name="Trazado 873497" d="M14.883.857A14.773,14.773,0,0,0,7.7,13.539,14.772,14.772,0,0,0,.514.857" transform="translate(-0.284 -0.474)" fill="none" stroke="#114d74" stroke-miterlimit="10" stroke-width="2"/>
            </g>
          </g>
        </g>
        <g id="Grupo_1113653" data-name="Grupo 1113653" transform="translate(1214.646 1188.443) rotate(-90)">
          <path id="Trazado_873496-11" data-name="Trazado 873496" d="M-11801-8646v19.46" transform="translate(11808.414 8646.002)" fill="none" stroke="#114d74" stroke-width="2"/>
          <g id="Grupo_1099075-11" data-name="Grupo 1099075" transform="translate(0 8.488)">
            <g id="Grupo_1099074-11" data-name="Grupo 1099074" clip-path="url(#clip-path-8)">
              <path id="Trazado_873497-11" data-name="Trazado 873497" d="M14.883.857A14.773,14.773,0,0,0,7.7,13.539,14.772,14.772,0,0,0,.514.857" transform="translate(-0.284 -0.474)" fill="none" stroke="#114d74" stroke-miterlimit="10" stroke-width="2"/>
            </g>
          </g>
        </g>
        <g id="Grupo_1113654" data-name="Grupo 1113654" transform="translate(1215.78 1253.127) rotate(-90)">
          <path id="Trazado_873496-12" data-name="Trazado 873496" d="M-11801-8646v19.46" transform="translate(11808.414 8646.002)" fill="none" stroke="#114d74" stroke-width="2"/>
          <g id="Grupo_1099075-12" data-name="Grupo 1099075" transform="translate(0 8.488)">
            <g id="Grupo_1099074-12" data-name="Grupo 1099074" clip-path="url(#clip-path-8)">
              <path id="Trazado_873497-12" data-name="Trazado 873497" d="M14.883.857A14.773,14.773,0,0,0,7.7,13.539,14.772,14.772,0,0,0,.514.857" transform="translate(-0.284 -0.474)" fill="none" stroke="#114d74" stroke-miterlimit="10" stroke-width="2"/>
            </g>
          </g>
        </g>
      </g>
      <g id="Grupo_1113659" data-name="Grupo 1113659" transform="translate(36.744 0.743)">
        <g id="Grupo_1113642" data-name="Grupo 1113642" transform="translate(33.832)">
          <rect id="Rectángulo_411170" data-name="Rectángulo 411170" width="127.684" height="69.148" rx="11" transform="translate(361.501 951.257)" fill="#f8aa5e"/>
          <text id="Estrategias_de_contenidos" data-name="Estrategias 
de contenidos" transform="translate(429.353 980.501)" fill="#12263f" font-size="16" font-family="Roboto-Bold, Roboto" font-weight="700"><tspan x="-42.516" y="0">Estrategias </tspan><tspan x="-50.773" y="24">de contenidos</tspan></text>
        </g>
        <rect id="Rectángulo_411208" data-name="Rectángulo 411208" width="112.525" height="57.559" rx="11" transform="translate(405.333 1070.401)" fill="#fef7ef"/>
        <rect id="Rectángulo_411207" data-name="Rectángulo 411207" width="137.027" height="36.194" rx="11" transform="translate(405.333 1196.334)" fill="#fef7ef"/>
        <rect id="Rectángulo_411209" data-name="Rectángulo 411209" width="126.027" height="36.194" rx="11" transform="translate(405.333 1235.301)" fill="#fef7ef"/>
        <rect id="Rectángulo_411206" data-name="Rectángulo 411206" width="126.027" height="57.559" rx="11" transform="translate(405.333 1133.367)" fill="#fef7ef"/>
        <text id="Narrativas_comunes" data-name="Narrativas 
comunes" transform="translate(426.292 1092.869)" fill="#12263f" font-size="16" font-family="Roboto-Regular, Roboto"><tspan x="0" y="0">Narrativas </tspan><tspan x="0" y="24">comunes</tspan></text>
        <text id="Casos_de_éxito" data-name="Casos de éxito" transform="translate(420.831 1219.933)" fill="#12263f" font-size="16" font-family="Roboto-Regular, Roboto"><tspan x="0" y="0">Casos de éxito</tspan></text>
        <text id="Engagement" transform="translate(423.347 1258.899)" fill="#12263f" font-size="16" font-family="Roboto-Italic, Roboto" font-style="italic"><tspan x="0" y="0">Engagement</tspan></text>
        <text id="Adaptación_de_narrativas" data-name="Adaptación 
de narrativas" transform="translate(425.579 1155.836)" fill="#12263f" font-size="16" font-family="Roboto-Regular, Roboto"><tspan x="0" y="0">Adaptación </tspan><tspan x="0" y="24">de narrativas</tspan></text>
        <text id="contiene-3" data-name="contiene" transform="translate(425.44 1036.002)" fill="#12263f" font-size="16" font-family="Roboto-Regular, Roboto"><tspan x="0" y="0">contiene</tspan></text>
        <path id="Trazado_917884" data-name="Trazado 917884" d="M-10775.877-8792.706v22.185h-74.485v189.22" transform="translate(11233.951 9833.303)" fill="none" stroke="#114d74" stroke-width="2"/>
        <g id="Grupo_1113632" data-name="Grupo 1113632" transform="translate(383.589 1107.608) rotate(-90)">
          <path id="Trazado_873496-13" data-name="Trazado 873496" d="M-11801-8646v19.46" transform="translate(11808.414 8646.002)" fill="none" stroke="#114d74" stroke-width="2"/>
          <g id="Grupo_1099075-13" data-name="Grupo 1099075" transform="translate(0 8.488)">
            <g id="Grupo_1099074-13" data-name="Grupo 1099074" clip-path="url(#clip-path-8)">
              <path id="Trazado_873497-13" data-name="Trazado 873497" d="M14.883.857A14.773,14.773,0,0,0,7.7,13.539,14.772,14.772,0,0,0,.514.857" transform="translate(-0.284 -0.474)" fill="none" stroke="#114d74" stroke-miterlimit="10" stroke-width="2"/>
            </g>
          </g>
        </g>
        <g id="Grupo_1113633" data-name="Grupo 1113633" transform="translate(383.589 1165.51) rotate(-90)">
          <path id="Trazado_873496-14" data-name="Trazado 873496" d="M-11801-8646v19.46" transform="translate(11808.414 8646.002)" fill="none" stroke="#114d74" stroke-width="2"/>
          <g id="Grupo_1099075-14" data-name="Grupo 1099075" transform="translate(0 8.488)">
            <g id="Grupo_1099074-14" data-name="Grupo 1099074" clip-path="url(#clip-path-8)">
              <path id="Trazado_873497-14" data-name="Trazado 873497" d="M14.883.857A14.773,14.773,0,0,0,7.7,13.539,14.772,14.772,0,0,0,.514.857" transform="translate(-0.284 -0.474)" fill="none" stroke="#114d74" stroke-miterlimit="10" stroke-width="2"/>
            </g>
          </g>
        </g>
        <g id="Grupo_1113634" data-name="Grupo 1113634" transform="translate(383.78 1219.847) rotate(-90)">
          <path id="Trazado_873496-15" data-name="Trazado 873496" d="M-11801-8646v19.46" transform="translate(11808.414 8646.002)" fill="none" stroke="#114d74" stroke-width="2"/>
          <g id="Grupo_1099075-15" data-name="Grupo 1099075" transform="translate(0 8.488)">
            <g id="Grupo_1099074-15" data-name="Grupo 1099074" clip-path="url(#clip-path-8)">
              <path id="Trazado_873497-15" data-name="Trazado 873497" d="M14.883.857A14.773,14.773,0,0,0,7.7,13.539,14.772,14.772,0,0,0,.514.857" transform="translate(-0.284 -0.474)" fill="none" stroke="#114d74" stroke-miterlimit="10" stroke-width="2"/>
            </g>
          </g>
        </g>
        <g id="Grupo_1113635" data-name="Grupo 1113635" transform="translate(383.78 1258.436) rotate(-90)">
          <path id="Trazado_873496-16" data-name="Trazado 873496" d="M-11801-8646v19.46" transform="translate(11808.414 8646.002)" fill="none" stroke="#114d74" stroke-width="2"/>
          <g id="Grupo_1099075-16" data-name="Grupo 1099075" transform="translate(0 8.488)">
            <g id="Grupo_1099074-16" data-name="Grupo 1099074" clip-path="url(#clip-path-8)">
              <path id="Trazado_873497-16" data-name="Trazado 873497" d="M14.883.857A14.773,14.773,0,0,0,7.7,13.539,14.772,14.772,0,0,0,.514.857" transform="translate(-0.284 -0.474)" fill="none" stroke="#114d74" stroke-miterlimit="10" stroke-width="2"/>
            </g>
          </g>
        </g>
      </g>
      <g id="Grupo_1113657" data-name="Grupo 1113657" transform="translate(8 0.743)">
        <g id="Grupo_1113645" data-name="Grupo 1113645" transform="translate(93.832)">
          <rect id="Rectángulo_411175" data-name="Rectángulo 411175" width="134" height="69.148" rx="11" transform="translate(706.501 951.257)" fill="#f8aa5e"/>
          <text id="Producción_de_contenidos_" data-name="Producción de
 contenidos
" transform="translate(772.185 980.767)" fill="#12263f" font-size="16" font-family="Roboto-Bold, Roboto" font-weight="700"><tspan x="-51.738" y="0">Producción de</tspan><tspan x="-41.941" y="24" xml:space="preserve"> contenidos</tspan><tspan x="0" y="48"></tspan></text>
        </g>
        <rect id="Rectángulo_411215" data-name="Rectángulo 411215" width="94.027" height="36.194" rx="11" transform="translate(822.077 1161.701)" fill="#fef7ef"/>
        <rect id="Rectángulo_411217" data-name="Rectángulo 411217" width="68.027" height="36.194" rx="11" transform="translate(822.077 1083.768)" fill="#fef7ef"/>
        <rect id="Rectángulo_411216" data-name="Rectángulo 411216" width="114.027" height="36.194" rx="11" transform="translate(822.077 1200.668)" fill="#fef7ef"/>
        <rect id="Rectángulo_411218" data-name="Rectángulo 411218" width="94.027" height="36.194" rx="11" transform="translate(822.077 1122.734)" fill="#fef7ef"/>
        <text id="Técnicas" transform="translate(837.575 1185.3)" fill="#12263f" font-size="16" font-family="Roboto-Regular, Roboto"><tspan x="0" y="0">Técnicas</tspan></text>
        <text id="Tipos" transform="translate(837.575 1107.365)" fill="#12263f" font-size="16" font-family="Roboto-Regular, Roboto"><tspan x="0" y="0">Tipos</tspan></text>
        <text id="Adaptación" transform="translate(840.091 1224.267)" fill="#12263f" font-size="16" font-family="Roboto-Regular, Roboto"><tspan x="0" y="0">Adaptación</tspan></text>
        <text id="Proceso" transform="translate(840.091 1146.332)" fill="#12263f" font-size="16" font-family="Roboto-Regular, Roboto"><tspan x="0" y="0">Proceso</tspan></text>
        <text id="contiene-4" data-name="contiene" transform="translate(842.185 1037.658)" fill="#12263f" font-size="16" font-family="Roboto-Regular, Roboto"><tspan x="0" y="0">contiene</tspan></text>
        <path id="Trazado_917886" data-name="Trazado 917886" d="M-10775.877-8792.706v22.185h-74.485v158.063" transform="translate(11650.695 9834.959)" fill="none" stroke="#114d74" stroke-width="2"/>
        <g id="Grupo_1113646" data-name="Grupo 1113646" transform="translate(800.333 1109.265) rotate(-90)">
          <path id="Trazado_873496-17" data-name="Trazado 873496" d="M-11801-8646v19.46" transform="translate(11808.414 8646.002)" fill="none" stroke="#114d74" stroke-width="2"/>
          <g id="Grupo_1099075-17" data-name="Grupo 1099075" transform="translate(0 8.488)">
            <g id="Grupo_1099074-17" data-name="Grupo 1099074" clip-path="url(#clip-path-8)">
              <path id="Trazado_873497-17" data-name="Trazado 873497" d="M14.883.857A14.773,14.773,0,0,0,7.7,13.539,14.772,14.772,0,0,0,.514.857" transform="translate(-0.284 -0.474)" fill="none" stroke="#114d74" stroke-miterlimit="10" stroke-width="2"/>
            </g>
          </g>
        </g>
        <g id="Grupo_1113647" data-name="Grupo 1113647" transform="translate(800.333 1148.246) rotate(-90)">
          <path id="Trazado_873496-18" data-name="Trazado 873496" d="M-11801-8646v19.46" transform="translate(11808.414 8646.002)" fill="none" stroke="#114d74" stroke-width="2"/>
          <g id="Grupo_1099075-18" data-name="Grupo 1099075" transform="translate(0 8.488)">
            <g id="Grupo_1099074-18" data-name="Grupo 1099074" clip-path="url(#clip-path-8)">
              <path id="Trazado_873497-18" data-name="Trazado 873497" d="M14.883.857A14.773,14.773,0,0,0,7.7,13.539,14.772,14.772,0,0,0,.514.857" transform="translate(-0.284 -0.474)" fill="none" stroke="#114d74" stroke-miterlimit="10" stroke-width="2"/>
            </g>
          </g>
        </g>
        <g id="Grupo_1113648" data-name="Grupo 1113648" transform="translate(800.333 1187.228) rotate(-90)">
          <path id="Trazado_873496-19" data-name="Trazado 873496" d="M-11801-8646v19.46" transform="translate(11808.414 8646.002)" fill="none" stroke="#114d74" stroke-width="2"/>
          <g id="Grupo_1099075-19" data-name="Grupo 1099075" transform="translate(0 8.488)">
            <g id="Grupo_1099074-19" data-name="Grupo 1099074" clip-path="url(#clip-path-8)">
              <path id="Trazado_873497-19" data-name="Trazado 873497" d="M14.883.857A14.773,14.773,0,0,0,7.7,13.539,14.772,14.772,0,0,0,.514.857" transform="translate(-0.284 -0.474)" fill="none" stroke="#114d74" stroke-miterlimit="10" stroke-width="2"/>
            </g>
          </g>
        </g>
        <g id="Grupo_1113649" data-name="Grupo 1113649" transform="translate(800.333 1229.32) rotate(-90)">
          <path id="Trazado_873496-20" data-name="Trazado 873496" d="M-11801-8646v19.46" transform="translate(11808.414 8646.002)" fill="none" stroke="#114d74" stroke-width="2"/>
          <g id="Grupo_1099075-20" data-name="Grupo 1099075" transform="translate(0 8.488)">
            <g id="Grupo_1099074-20" data-name="Grupo 1099074" clip-path="url(#clip-path-8)">
              <path id="Trazado_873497-20" data-name="Trazado 873497" d="M14.883.857A14.773,14.773,0,0,0,7.7,13.539,14.772,14.772,0,0,0,.514.857" transform="translate(-0.284 -0.474)" fill="none" stroke="#114d74" stroke-miterlimit="10" stroke-width="2"/>
            </g>
          </g>
        </g>
      </g>
      <g id="Grupo_1113658" data-name="Grupo 1113658" transform="translate(26.818 0.743)">
        <rect id="Rectángulo_411213" data-name="Rectángulo 411213" width="108.525" height="57.559" rx="11" transform="translate(613.976 1164.348)" fill="#e6faee"/>
        <rect id="Rectángulo_411211" data-name="Rectángulo 411211" width="113.516" height="36.194" rx="11" transform="translate(612.985 1124.75)" fill="#e6faee"/>
        <rect id="Rectángulo_411214" data-name="Rectángulo 411214" width="127.027" height="36.194" rx="11" transform="translate(617.985 1226.814)" fill="#e6faee"/>
        <rect id="Rectángulo_411210" data-name="Rectángulo 411210" width="100.498" height="36.194" rx="11" transform="translate(612.985 1085.153)" fill="#e6faee"/>
        <text id="Mapas_de_contenido" data-name="Mapas de 
contenido" transform="translate(634.935 1186.815)" fill="#12263f" font-size="16" font-family="Roboto-Regular, Roboto"><tspan x="0" y="0">Mapas de </tspan><tspan x="0" y="24">contenido</tspan></text>
        <text id="Calendarios" transform="translate(628.483 1148.349)" fill="#12263f" font-size="16" font-family="Roboto-Regular, Roboto"><tspan x="0" y="0">Calendarios</tspan></text>
        <text id="Herramientas" transform="translate(633.483 1250.413)" fill="#12263f" font-size="16" font-family="Roboto-Regular, Roboto"><tspan x="0" y="0">Herramientas</tspan></text>
        <text id="Objetivos" transform="translate(630.999 1108.752)" fill="#12263f" font-size="16" font-family="Roboto-Regular, Roboto"><tspan x="0" y="0">Objetivos</tspan></text>
        <g id="Grupo_1113641" data-name="Grupo 1113641" transform="translate(54.031)">
          <rect id="Rectángulo_411186" data-name="Rectángulo 411186" width="128.199" height="69.148" rx="11" transform="translate(543.302 951.257)" fill="#85e5aa"/>
          <text id="Planificación_estratégica" data-name="Planificación
 estratégica" transform="translate(604.985 980.767)" fill="#12263f" font-size="16" font-family="Roboto-Bold, Roboto" font-weight="700"><tspan x="-46.797" y="0">Planificación</tspan><tspan x="-42.398" y="24" xml:space="preserve"> estratégica</tspan></text>
        </g>
        <text id="contiene-5" data-name="contiene" transform="translate(630.366 1037.658)" fill="#12263f" font-size="16" font-family="Roboto-Regular, Roboto"><tspan x="0" y="0">contiene</tspan></text>
        <path id="Trazado_917885" data-name="Trazado 917885" d="M-10775.877-8792.706v22.185h-74.485v189.22" transform="translate(11438.877 9834.959)" fill="none" stroke="#114d74" stroke-width="2"/>
        <g id="Grupo_1113636" data-name="Grupo 1113636" transform="translate(588.515 1111.266) rotate(-90)">
          <path id="Trazado_873496-21" data-name="Trazado 873496" d="M-11801-8646v19.46" transform="translate(11808.414 8646.002)" fill="none" stroke="#114d74" stroke-width="2"/>
          <g id="Grupo_1099075-21" data-name="Grupo 1099075" transform="translate(0 8.488)">
            <g id="Grupo_1099074-21" data-name="Grupo 1099074" clip-path="url(#clip-path-8)">
              <path id="Trazado_873497-21" data-name="Trazado 873497" d="M14.883.857A14.773,14.773,0,0,0,7.7,13.539,14.772,14.772,0,0,0,.514.857" transform="translate(-0.284 -0.474)" fill="none" stroke="#114d74" stroke-miterlimit="10" stroke-width="2"/>
            </g>
          </g>
        </g>
        <g id="Grupo_1113637" data-name="Grupo 1113637" transform="translate(588.515 1169.166) rotate(-90)">
          <path id="Trazado_873496-22" data-name="Trazado 873496" d="M-11801-8646v19.46" transform="translate(11808.414 8646.002)" fill="none" stroke="#114d74" stroke-width="2"/>
          <g id="Grupo_1099075-22" data-name="Grupo 1099075" transform="translate(0 8.488)">
            <g id="Grupo_1099074-22" data-name="Grupo 1099074" clip-path="url(#clip-path-8)">
              <path id="Trazado_873497-22" data-name="Trazado 873497" d="M14.883.857A14.773,14.773,0,0,0,7.7,13.539,14.772,14.772,0,0,0,.514.857" transform="translate(-0.284 -0.474)" fill="none" stroke="#114d74" stroke-miterlimit="10" stroke-width="2"/>
            </g>
          </g>
        </g>
        <g id="Grupo_1113638" data-name="Grupo 1113638" transform="translate(588.706 1223.504) rotate(-90)">
          <path id="Trazado_873496-23" data-name="Trazado 873496" d="M-11801-8646v19.46" transform="translate(11808.414 8646.002)" fill="none" stroke="#114d74" stroke-width="2"/>
          <g id="Grupo_1099075-23" data-name="Grupo 1099075" transform="translate(0 8.488)">
            <g id="Grupo_1099074-23" data-name="Grupo 1099074" clip-path="url(#clip-path-8)">
              <path id="Trazado_873497-23" data-name="Trazado 873497" d="M14.883.857A14.773,14.773,0,0,0,7.7,13.539,14.772,14.772,0,0,0,.514.857" transform="translate(-0.284 -0.474)" fill="none" stroke="#114d74" stroke-miterlimit="10" stroke-width="2"/>
            </g>
          </g>
        </g>
        <g id="Grupo_1113639" data-name="Grupo 1113639" transform="translate(588.706 1262.093) rotate(-90)">
          <path id="Trazado_873496-24" data-name="Trazado 873496" d="M-11801-8646v19.46" transform="translate(11808.414 8646.002)" fill="none" stroke="#114d74" stroke-width="2"/>
          <g id="Grupo_1099075-24" data-name="Grupo 1099075" transform="translate(0 8.488)">
            <g id="Grupo_1099074-24" data-name="Grupo 1099074" clip-path="url(#clip-path-8)">
              <path id="Trazado_873497-24" data-name="Trazado 873497" d="M14.883.857A14.773,14.773,0,0,0,7.7,13.539,14.772,14.772,0,0,0,.514.857" transform="translate(-0.284 -0.474)" fill="none" stroke="#114d74" stroke-miterlimit="10" stroke-width="2"/>
            </g>
          </g>
        </g>
      </g>
      <g id="Grupo_1113660" data-name="Grupo 1113660" transform="translate(47.5 0.743)">
        <rect id="Rectángulo_411179" data-name="Rectángulo 411179" width="112.525" height="57.559" rx="11" transform="translate(210.333 1050.805)" fill="#e6faee"/>
        <rect id="Rectángulo_411204" data-name="Rectángulo 411204" width="126.027" height="36.194" rx="11" transform="translate(210.333 1113.715)" fill="#e6faee"/>
        <rect id="Rectángulo_411205" data-name="Rectángulo 411205" width="126.027" height="57.559" rx="11" transform="translate(210.333 1152.627)" fill="#e6faee"/>
        <text id="Elementos_narrativos" data-name="Elementos 
narrativos" transform="translate(229.536 1073.272)" fill="#12263f" font-size="16" font-family="Roboto-Regular, Roboto"><tspan x="0" y="0">Elementos </tspan><tspan x="0" y="24">narrativos</tspan></text>
        <text id="_Importancia" data-name=" Importancia" transform="translate(230.772 1136.184)" fill="#12263f" font-size="16" font-family="Roboto-Regular, Roboto"><tspan x="0" y="0" xml:space="preserve"> Importancia</tspan></text>
        <text id="Conexiones_emocionales" data-name="Conexiones 
emocionales" transform="translate(230.771 1175.094)" fill="#12263f" font-size="16" font-family="Roboto-Regular, Roboto"><tspan x="0" y="0">Conexiones </tspan><tspan x="0" y="24">emocionales</tspan></text>
        <text id="contiene-6" data-name="contiene" transform="translate(228.685 1016.404)" fill="#12263f" font-size="16" font-family="Roboto-Regular, Roboto"><tspan x="0" y="0">contiene</tspan></text>
        <path id="Trazado_917883" data-name="Trazado 917883" d="M-10775.877-8792.706v22.185h-74.485v137.17" transform="translate(11037.195 9813.706)" fill="none" stroke="#114d74" stroke-width="2"/>
        <g id="Grupo_1113617" data-name="Grupo 1113617" transform="translate(186.833 1090.012) rotate(-90)">
          <path id="Trazado_873496-25" data-name="Trazado 873496" d="M-11801-8646v19.46" transform="translate(11808.414 8646.002)" fill="none" stroke="#114d74" stroke-width="2"/>
          <g id="Grupo_1099075-25" data-name="Grupo 1099075" transform="translate(0 8.488)">
            <g id="Grupo_1099074-25" data-name="Grupo 1099074" clip-path="url(#clip-path-8)">
              <path id="Trazado_873497-25" data-name="Trazado 873497" d="M14.883.857A14.773,14.773,0,0,0,7.7,13.539,14.772,14.772,0,0,0,.514.857" transform="translate(-0.284 -0.474)" fill="none" stroke="#114d74" stroke-miterlimit="10" stroke-width="2"/>
            </g>
          </g>
        </g>
        <g id="Grupo_1113630" data-name="Grupo 1113630" transform="translate(186.833 1137.909) rotate(-90)">
          <path id="Trazado_873496-26" data-name="Trazado 873496" d="M-11801-8646v19.46" transform="translate(11808.414 8646.002)" fill="none" stroke="#114d74" stroke-width="2"/>
          <g id="Grupo_1099075-26" data-name="Grupo 1099075" transform="translate(0 8.488)">
            <g id="Grupo_1099074-26" data-name="Grupo 1099074" clip-path="url(#clip-path-8)">
              <path id="Trazado_873497-26" data-name="Trazado 873497" d="M14.883.857A14.773,14.773,0,0,0,7.7,13.539,14.772,14.772,0,0,0,.514.857" transform="translate(-0.284 -0.474)" fill="none" stroke="#114d74" stroke-miterlimit="10" stroke-width="2"/>
            </g>
          </g>
        </g>
        <g id="Grupo_1113631" data-name="Grupo 1113631" transform="translate(186.833 1183.303) rotate(-90)">
          <path id="Trazado_873496-27" data-name="Trazado 873496" d="M-11801-8646v19.46" transform="translate(11808.414 8646.002)" fill="none" stroke="#114d74" stroke-width="2"/>
          <g id="Grupo_1099075-27" data-name="Grupo 1099075" transform="translate(0 8.488)">
            <g id="Grupo_1099074-27" data-name="Grupo 1099074" clip-path="url(#clip-path-8)">
              <path id="Trazado_873497-27" data-name="Trazado 873497" d="M14.883.857A14.773,14.773,0,0,0,7.7,13.539,14.772,14.772,0,0,0,.514.857" transform="translate(-0.284 -0.474)" fill="none" stroke="#114d74" stroke-miterlimit="10" stroke-width="2"/>
            </g>
          </g>
        </g>
        <g id="Grupo_1113643" data-name="Grupo 1113643" transform="translate(-0.25)">
          <rect id="Rectángulo_411197" data-name="Rectángulo 411197" width="119.471" height="48.01" rx="11" transform="translate(201.583 951.257)" fill="#85e5aa"/>
          <text id="Storytelling" transform="translate(259.185 981.831)" fill="#12263f" font-size="16" font-family="Roboto-BoldItalic, Roboto" font-weight="700" font-style="italic"><tspan x="-40.625" y="0">Storytelling</tspan></text>
        </g>
      </g>
      <path id="Trazado_919711" data-name="Trazado 919711" d="M-101.646-6.162h-5.625v3.809h6.6V0H-110.2V-14.219h9.512v2.373h-6.582v3.389h5.625Zm8.232,3.242a.909.909,0,0,0-.513-.815,5.824,5.824,0,0,0-1.646-.532q-3.77-.791-3.77-3.2a2.9,2.9,0,0,1,1.167-2.349,4.707,4.707,0,0,1,3.052-.942,5.067,5.067,0,0,1,3.218.947A2.985,2.985,0,0,1-90.7-7.354h-2.822a1.366,1.366,0,0,0-.391-1,1.653,1.653,0,0,0-1.221-.4,1.689,1.689,0,0,0-1.1.322,1.017,1.017,0,0,0-.391.82.87.87,0,0,0,.444.757,4.571,4.571,0,0,0,1.5.5,12.244,12.244,0,0,1,1.777.474,2.92,2.92,0,0,1,2.236,2.842A2.756,2.756,0,0,1-91.909-.7a5.35,5.35,0,0,1-3.2.894,5.588,5.588,0,0,1-2.358-.474,3.957,3.957,0,0,1-1.616-1.3,3.018,3.018,0,0,1-.586-1.782H-97a1.473,1.473,0,0,0,.557,1.152,2.208,2.208,0,0,0,1.387.4,2.044,2.044,0,0,0,1.226-.308A.957.957,0,0,0-93.413-2.92Zm7.939-10.244v2.6h1.807V-8.5h-1.807v5.273a1.259,1.259,0,0,0,.225.84,1.128,1.128,0,0,0,.859.254,4.5,4.5,0,0,0,.83-.068V-.059A5.81,5.81,0,0,1-85.269.2q-2.969,0-3.027-3V-8.5h-1.543v-2.07H-88.3v-2.6Zm9.316,5.244A7.667,7.667,0,0,0-77.173-8a2.067,2.067,0,0,0-2.1,1.084V0h-2.822V-10.566h2.666l.078,1.26A2.615,2.615,0,0,1-77-10.762a2.957,2.957,0,0,1,.879.127ZM-68.97,0a3.134,3.134,0,0,1-.283-.947A3.415,3.415,0,0,1-71.919.2a3.752,3.752,0,0,1-2.573-.9,2.89,2.89,0,0,1-1.021-2.266,2.986,2.986,0,0,1,1.245-2.578,6.144,6.144,0,0,1,3.6-.908h1.3v-.605a1.741,1.741,0,0,0-.376-1.172,1.479,1.479,0,0,0-1.187-.439,1.682,1.682,0,0,0-1.118.342,1.161,1.161,0,0,0-.405.938h-2.822a2.835,2.835,0,0,1,.566-1.7,3.744,3.744,0,0,1,1.6-1.226,5.837,5.837,0,0,1,2.324-.444,4.611,4.611,0,0,1,3.1.981,3.433,3.433,0,0,1,1.147,2.759v4.58a5.052,5.052,0,0,0,.42,2.275V0ZM-71.3-1.963a2.431,2.431,0,0,0,1.152-.278,1.828,1.828,0,0,0,.781-.747V-4.8h-1.055q-2.119,0-2.256,1.465l-.01.166a1.13,1.13,0,0,0,.371.869A1.441,1.441,0,0,0-71.3-1.963Zm10.313-11.2v2.6h1.807V-8.5h-1.807v5.273a1.259,1.259,0,0,0,.225.84,1.128,1.128,0,0,0,.859.254,4.5,4.5,0,0,0,.83-.068V-.059A5.81,5.81,0,0,1-60.786.2q-2.969,0-3.027-3V-8.5h-1.543v-2.07h1.543v-2.6ZM-52.749.2A5.187,5.187,0,0,1-56.533-1.23a5.068,5.068,0,0,1-1.46-3.8V-5.3a6.383,6.383,0,0,1,.615-2.847,4.515,4.515,0,0,1,1.743-1.934,4.893,4.893,0,0,1,2.573-.679,4.385,4.385,0,0,1,3.413,1.367A5.555,5.555,0,0,1-48.4-5.518v1.152h-6.729a2.622,2.622,0,0,0,.825,1.66,2.5,2.5,0,0,0,1.743.625,3.046,3.046,0,0,0,2.549-1.182l1.387,1.553a4.237,4.237,0,0,1-1.719,1.4A5.639,5.639,0,0,1-52.749.2Zm-.322-8.672a1.767,1.767,0,0,0-1.362.566A2.926,2.926,0,0,0-55.1-6.289h3.926v-.225a2.086,2.086,0,0,0-.508-1.45A1.824,1.824,0,0,0-53.071-8.477Zm5.859,3.115a6.193,6.193,0,0,1,1.157-3.916,3.75,3.75,0,0,1,3.12-1.484A3.289,3.289,0,0,1-40.229-9.57l.117-1h2.559V-.352a4.516,4.516,0,0,1-.63,2.412,4.045,4.045,0,0,1-1.772,1.563,6.231,6.231,0,0,1-2.676.537A5.794,5.794,0,0,1-44.9,3.7a4.021,4.021,0,0,1-1.67-1.2l1.25-1.719a3.306,3.306,0,0,0,2.559,1.182,2.42,2.42,0,0,0,1.748-.6,2.253,2.253,0,0,0,.625-1.7V-.908A3.264,3.264,0,0,1-42.954.2a3.74,3.74,0,0,1-3.081-1.489,6.191,6.191,0,0,1-1.177-3.95Zm2.822.205a3.846,3.846,0,0,0,.576,2.251,1.834,1.834,0,0,0,1.582.815,1.961,1.961,0,0,0,1.846-.967V-7.5a1.956,1.956,0,0,0-1.826-.967,1.845,1.845,0,0,0-1.6.83A4.334,4.334,0,0,0-44.39-5.156ZM-32.407,0h-2.832V-10.566h2.832Zm-3-13.3a1.39,1.39,0,0,1,.425-1.045,1.6,1.6,0,0,1,1.157-.41,1.6,1.6,0,0,1,1.152.41,1.382,1.382,0,0,1,.43,1.045,1.386,1.386,0,0,1-.435,1.055,1.6,1.6,0,0,1-1.147.41,1.6,1.6,0,0,1-1.147-.41A1.386,1.386,0,0,1-35.405-13.3ZM-23.96,0a3.134,3.134,0,0,1-.283-.947A3.415,3.415,0,0,1-26.909.2a3.752,3.752,0,0,1-2.573-.9A2.89,2.89,0,0,1-30.5-2.969a2.986,2.986,0,0,1,1.245-2.578,6.144,6.144,0,0,1,3.6-.908h1.3v-.605a1.741,1.741,0,0,0-.376-1.172,1.479,1.479,0,0,0-1.187-.439,1.682,1.682,0,0,0-1.118.342,1.161,1.161,0,0,0-.405.938h-2.822a2.835,2.835,0,0,1,.566-1.7,3.744,3.744,0,0,1,1.6-1.226,5.837,5.837,0,0,1,2.324-.444,4.611,4.611,0,0,1,3.1.981,3.433,3.433,0,0,1,1.147,2.759v4.58a5.052,5.052,0,0,0,.42,2.275V0Zm-2.334-1.963a2.431,2.431,0,0,0,1.152-.278,1.828,1.828,0,0,0,.781-.747V-4.8h-1.055q-2.119,0-2.256,1.465l-.01.166a1.13,1.13,0,0,0,.371.869A1.441,1.441,0,0,0-26.294-1.963Zm12.656-.957a.909.909,0,0,0-.513-.815A5.824,5.824,0,0,0-15.8-4.268q-3.77-.791-3.77-3.2A2.9,2.9,0,0,1-18.4-9.819a4.707,4.707,0,0,1,3.052-.942,5.067,5.067,0,0,1,3.218.947,2.985,2.985,0,0,1,1.206,2.461h-2.822a1.366,1.366,0,0,0-.391-1,1.653,1.653,0,0,0-1.221-.4,1.689,1.689,0,0,0-1.1.322,1.017,1.017,0,0,0-.391.82.87.87,0,0,0,.444.757,4.571,4.571,0,0,0,1.5.5,12.244,12.244,0,0,1,1.777.474,2.92,2.92,0,0,1,2.236,2.842A2.756,2.756,0,0,1-12.134-.7a5.35,5.35,0,0,1-3.2.894A5.588,5.588,0,0,1-17.7-.278a3.957,3.957,0,0,1-1.616-1.3A3.018,3.018,0,0,1-19.9-3.359h2.676a1.473,1.473,0,0,0,.557,1.152,2.208,2.208,0,0,0,1.387.4,2.044,2.044,0,0,0,1.226-.308A.957.957,0,0,0-13.638-2.92Zm9.1-2.441A6.368,6.368,0,0,1-3.428-9.3,3.6,3.6,0,0,1-.4-10.762,3.236,3.236,0,0,1,2.153-9.609V-15H4.985V0H2.437L2.3-1.123A3.321,3.321,0,0,1-.415.2a3.587,3.587,0,0,1-2.993-1.47A6.573,6.573,0,0,1-4.536-5.361Zm2.822.205A4.16,4.16,0,0,0-1.2-2.881a1.687,1.687,0,0,0,1.5.791,1.889,1.889,0,0,0,1.846-1.1v-4.17a1.862,1.862,0,0,0-1.826-1.1Q-1.714-8.467-1.714-5.156ZM12.036.2A5.187,5.187,0,0,1,8.252-1.23a5.068,5.068,0,0,1-1.46-3.8V-5.3a6.383,6.383,0,0,1,.615-2.847A4.515,4.515,0,0,1,9.15-10.083a4.893,4.893,0,0,1,2.573-.679,4.385,4.385,0,0,1,3.413,1.367,5.555,5.555,0,0,1,1.245,3.877v1.152H9.653a2.622,2.622,0,0,0,.825,1.66,2.5,2.5,0,0,0,1.743.625,3.046,3.046,0,0,0,2.549-1.182l1.387,1.553a4.237,4.237,0,0,1-1.719,1.4A5.639,5.639,0,0,1,12.036.2Zm-.322-8.672a1.767,1.767,0,0,0-1.362.566,2.926,2.926,0,0,0-.669,1.621h3.926v-.225a2.086,2.086,0,0,0-.508-1.45A1.824,1.824,0,0,0,11.714-8.477Zm15.645,6.4a1.851,1.851,0,0,0,1.27-.43,1.506,1.506,0,0,0,.508-1.143h2.646A3.62,3.62,0,0,1,31.2-1.685,3.866,3.866,0,0,1,29.619-.3,4.936,4.936,0,0,1,27.407.2a4.587,4.587,0,0,1-3.574-1.44,5.7,5.7,0,0,1-1.309-3.979V-5.41a5.635,5.635,0,0,1,1.3-3.9,4.534,4.534,0,0,1,3.564-1.455,4.444,4.444,0,0,1,3.179,1.128,3.994,3.994,0,0,1,1.216,3H29.136a1.923,1.923,0,0,0-.508-1.333,1.7,1.7,0,0,0-1.289-.513,1.7,1.7,0,0,0-1.489.718,4.155,4.155,0,0,0-.5,2.329v.293a4.207,4.207,0,0,0,.5,2.344A1.722,1.722,0,0,0,27.358-2.08Zm5.6-3.3a6.267,6.267,0,0,1,.605-2.8,4.432,4.432,0,0,1,1.743-1.9,5.086,5.086,0,0,1,2.642-.674,4.812,4.812,0,0,1,3.491,1.309A5.252,5.252,0,0,1,42.944-5.9l.02.723a5.523,5.523,0,0,1-1.357,3.9A4.718,4.718,0,0,1,37.964.2,4.742,4.742,0,0,1,34.316-1.27a5.62,5.62,0,0,1-1.362-3.984Zm2.822.205a3.939,3.939,0,0,0,.566,2.3,1.869,1.869,0,0,0,1.621.8,1.874,1.874,0,0,0,1.6-.786,4.31,4.31,0,0,0,.576-2.515,3.9,3.9,0,0,0-.576-2.285,1.874,1.874,0,0,0-1.621-.811,1.843,1.843,0,0,0-1.6.806A4.383,4.383,0,0,0,35.776-5.176ZM47.3-10.566l.088,1.221a3.689,3.689,0,0,1,3.037-1.416,3.066,3.066,0,0,1,2.5.986,4.6,4.6,0,0,1,.84,2.949V0H50.942V-6.758a1.831,1.831,0,0,0-.391-1.3,1.749,1.749,0,0,0-1.3-.405,1.942,1.942,0,0,0-1.787,1.016V0H44.644V-10.566Zm11.982-2.6v2.6h1.807V-8.5H59.282v5.273a1.259,1.259,0,0,0,.225.84,1.128,1.128,0,0,0,.859.254A4.5,4.5,0,0,0,61.2-2.2V-.059A5.81,5.81,0,0,1,59.487.2q-2.969,0-3.027-3V-8.5H54.917v-2.07H56.46v-2.6ZM67.524.2A5.187,5.187,0,0,1,63.74-1.23a5.068,5.068,0,0,1-1.46-3.8V-5.3A6.383,6.383,0,0,1,62.9-8.149a4.515,4.515,0,0,1,1.743-1.934,4.893,4.893,0,0,1,2.573-.679,4.385,4.385,0,0,1,3.413,1.367A5.555,5.555,0,0,1,71.87-5.518v1.152H65.142a2.622,2.622,0,0,0,.825,1.66,2.5,2.5,0,0,0,1.743.625,3.046,3.046,0,0,0,2.549-1.182l1.387,1.553a4.237,4.237,0,0,1-1.719,1.4A5.639,5.639,0,0,1,67.524.2ZM67.2-8.477a1.767,1.767,0,0,0-1.362.566,2.926,2.926,0,0,0-.669,1.621H69.1v-.225a2.086,2.086,0,0,0-.508-1.45A1.824,1.824,0,0,0,67.2-8.477Zm8.867-2.09.088,1.221a3.689,3.689,0,0,1,3.037-1.416,3.066,3.066,0,0,1,2.5.986,4.6,4.6,0,0,1,.84,2.949V0H79.712V-6.758a1.831,1.831,0,0,0-.391-1.3,1.749,1.749,0,0,0-1.3-.405,1.942,1.942,0,0,0-1.787,1.016V0H73.413V-10.566ZM87.651,0H84.819V-10.566h2.832Zm-3-13.3a1.39,1.39,0,0,1,.425-1.045,1.6,1.6,0,0,1,1.157-.41,1.6,1.6,0,0,1,1.152.41,1.382,1.382,0,0,1,.43,1.045,1.386,1.386,0,0,1-.435,1.055,1.6,1.6,0,0,1-1.147.41,1.6,1.6,0,0,1-1.147-.41A1.386,1.386,0,0,1,84.653-13.3Zm4.883,7.939A6.368,6.368,0,0,1,90.645-9.3a3.6,3.6,0,0,1,3.032-1.465,3.236,3.236,0,0,1,2.549,1.152V-15h2.832V0H96.509l-.137-1.123A3.321,3.321,0,0,1,93.657.2a3.587,3.587,0,0,1-2.993-1.47A6.573,6.573,0,0,1,89.536-5.361Zm2.822.205a4.16,4.16,0,0,0,.518,2.275,1.687,1.687,0,0,0,1.5.791,1.889,1.889,0,0,0,1.846-1.1v-4.17a1.862,1.862,0,0,0-1.826-1.1Q92.358-8.467,92.358-5.156Zm8.447-.225a6.266,6.266,0,0,1,.605-2.8,4.432,4.432,0,0,1,1.743-1.9,5.086,5.086,0,0,1,2.642-.674,4.812,4.812,0,0,1,3.491,1.309A5.252,5.252,0,0,1,110.8-5.9l.02.723a5.523,5.523,0,0,1-1.357,3.9A4.718,4.718,0,0,1,105.815.2a4.742,4.742,0,0,1-3.647-1.465,5.62,5.62,0,0,1-1.362-3.984Zm2.822.205a3.939,3.939,0,0,0,.566,2.3,1.869,1.869,0,0,0,1.621.8,1.874,1.874,0,0,0,1.6-.786,4.31,4.31,0,0,0,.576-2.515,3.9,3.9,0,0,0-.576-2.285,1.874,1.874,0,0,0-1.621-.811,1.843,1.843,0,0,0-1.6.806A4.383,4.383,0,0,0,103.628-5.176Z" transform="translate(811.333 812)" fill="#12263f"/>
    </g>
  </g>
</svg>
