<svg xmlns="http://www.w3.org/2000/svg" xmlns:xlink="http://www.w3.org/1999/xlink" width="1240" height="594" viewBox="0 0 1240 594">
  <defs>
    <clipPath id="clip-path">
      <rect id="Rectángulo_401216" data-name="Rectángulo 401216" width="21.329" height="18.792" fill="none" stroke="#114d74" stroke-width="1"/>
    </clipPath>
    <clipPath id="clip-path-8">
      <rect id="Rectángulo_401216-8" data-name="Rectángulo 401216" width="14.828" height="13.065" fill="none" stroke="#114d74" stroke-width="1"/>
    </clipPath>
  </defs>
  <g id="Grupo_1119221" data-name="Grupo 1119221" transform="translate(-180.333 -730)">
    <path id="Trazado_919690" data-name="Trazado 919690" d="M20,0H1220a20,20,0,0,1,20,20V574a20,20,0,0,1-20,20H20A20,20,0,0,1,0,574V20A20,20,0,0,1,20,0Z" transform="translate(180.333 730)" fill="#f6f6f6"/>
    <path id="Trazado_917854" data-name="Trazado 917854" d="M11.909,0h255.7c6.577,0,11.909,3.355,11.909,7.495V50.418c0,4.139-5.332,7.495-11.909,7.495H11.909C5.332,57.913,0,54.558,0,50.418V7.495C0,3.355,5.332,0,11.909,0Z" transform="translate(671.501 775)" fill="#b2d5ff"/>
    <path id="Trazado_919692" data-name="Trazado 919692" d="M-102.021-6.025h-5.391v3.389h6.367V0h-9.795V-14.219h9.814v2.646h-6.387v3h5.391Zm7.754,3.057a.76.76,0,0,0-.439-.674,6.685,6.685,0,0,0-1.67-.527,7.615,7.615,0,0,1-2.031-.718,3.4,3.4,0,0,1-1.221-1.079,2.577,2.577,0,0,1-.42-1.455,2.92,2.92,0,0,1,1.2-2.4,4.948,4.948,0,0,1,3.145-.942,5.482,5.482,0,0,1,3.359.947,2.962,2.962,0,0,1,1.27,2.49h-3.3q0-1.27-1.338-1.27a1.326,1.326,0,0,0-.869.288.892.892,0,0,0-.352.718.819.819,0,0,0,.43.713,4.06,4.06,0,0,0,1.372.449,11.857,11.857,0,0,1,1.655.42,3.007,3.007,0,0,1,2.383,2.939A2.767,2.767,0,0,1-92.378-.713,5.631,5.631,0,0,1-95.7.2a5.747,5.747,0,0,1-2.422-.488,4.05,4.05,0,0,1-1.66-1.328,3.007,3.007,0,0,1-.6-1.768H-97.3a1.272,1.272,0,0,0,.488,1.069,2.009,2.009,0,0,0,1.2.337A1.58,1.58,0,0,0-94.6-2.256.875.875,0,0,0-94.268-2.969Zm8.545-10.225v2.627h1.738v2.285h-1.738v4.834a1.234,1.234,0,0,0,.215.83,1.152,1.152,0,0,0,.85.234,4.828,4.828,0,0,0,.82-.059V-.088A6.074,6.074,0,0,1-85.693.2a3.448,3.448,0,0,1-2.51-.8,3.282,3.282,0,0,1-.811-2.432V-8.281h-1.348v-2.285h1.348v-2.627ZM-76.3-7.588l-1.084-.078a1.947,1.947,0,0,0-1.992.977V0h-3.291V-10.566h3.086l.107,1.357a2.548,2.548,0,0,1,2.314-1.553,3.209,3.209,0,0,1,.918.117ZM-69.453,0a3.716,3.716,0,0,1-.312-.947A3.06,3.06,0,0,1-72.3.2a3.749,3.749,0,0,1-2.539-.9,2.875,2.875,0,0,1-1.045-2.271,2.955,2.955,0,0,1,1.27-2.6,6.468,6.468,0,0,1,3.691-.879h1.016v-.557q0-1.455-1.26-1.455a1.027,1.027,0,0,0-1.172,1.152h-3.291a2.955,2.955,0,0,1,1.3-2.49,5.474,5.474,0,0,1,3.325-.957,4.8,4.8,0,0,1,3.193.986,3.429,3.429,0,0,1,1.2,2.705v4.678a4.79,4.79,0,0,0,.449,2.227V0Zm-2.061-2.148a1.836,1.836,0,0,0,1.021-.264,1.653,1.653,0,0,0,.581-.6V-4.7h-.957q-1.719,0-1.719,1.543a.942.942,0,0,0,.3.728A1.1,1.1,0,0,0-71.514-2.148Zm10.557-11.045v2.627h1.738v2.285h-1.738v4.834a1.234,1.234,0,0,0,.215.83,1.152,1.152,0,0,0,.85.234,4.828,4.828,0,0,0,.82-.059V-.088A6.074,6.074,0,0,1-60.928.2a3.448,3.448,0,0,1-2.51-.8,3.282,3.282,0,0,1-.811-2.432V-8.281H-65.6v-2.285h1.348v-2.627ZM-52.812.2a5.432,5.432,0,0,1-3.936-1.45,5.008,5.008,0,0,1-1.5-3.774V-5.3a6.489,6.489,0,0,1,.6-2.861A4.395,4.395,0,0,1-55.9-10.083a5.292,5.292,0,0,1,2.734-.679A4.574,4.574,0,0,1-49.648-9.38a5.43,5.43,0,0,1,1.289,3.853v1.279H-54.9a2.372,2.372,0,0,0,.771,1.4,2.3,2.3,0,0,0,1.543.508,2.958,2.958,0,0,0,2.441-1.094l1.5,1.777A4.2,4.2,0,0,1-50.386-.308,5.891,5.891,0,0,1-52.812.2Zm-.371-8.418q-1.445,0-1.719,1.914h3.32v-.254a1.63,1.63,0,0,0-.4-1.226A1.593,1.593,0,0,0-53.184-8.223Zm5.762,2.861a7.134,7.134,0,0,1,.527-2.832,4.245,4.245,0,0,1,1.514-1.9,3.99,3.99,0,0,1,2.295-.669,3.173,3.173,0,0,1,2.578,1.113l.117-.918H-37.4V-.4a4.455,4.455,0,0,1-.649,2.427,4.167,4.167,0,0,1-1.88,1.582,6.91,6.91,0,0,1-2.852.552,5.961,5.961,0,0,1-2.251-.439A4.063,4.063,0,0,1-46.7,2.578L-45.322.645A3.018,3.018,0,0,0-42.9,1.729,1.96,1.96,0,0,0-40.713-.518V-.85A3.09,3.09,0,0,1-43.105.2,3.819,3.819,0,0,1-46.23-1.284a6.13,6.13,0,0,1-1.191-3.96Zm3.3.205A3.759,3.759,0,0,0-43.633-3.1a1.541,1.541,0,0,0,1.367.757,1.748,1.748,0,0,0,1.553-.713V-7.5a1.7,1.7,0,0,0-1.533-.723,1.551,1.551,0,0,0-1.377.786A4.287,4.287,0,0,0-44.121-5.156ZM-32.061,0h-3.3V-10.566h3.3Zm-3.5-13.291a1.469,1.469,0,0,1,.508-1.152,1.916,1.916,0,0,1,1.318-.449,1.916,1.916,0,0,1,1.318.449,1.469,1.469,0,0,1,.508,1.152,1.469,1.469,0,0,1-.508,1.152,1.916,1.916,0,0,1-1.318.449,1.916,1.916,0,0,1-1.318-.449A1.469,1.469,0,0,1-35.557-13.291ZM-24.082,0a3.716,3.716,0,0,1-.312-.947A3.06,3.06,0,0,1-26.934.2a3.749,3.749,0,0,1-2.539-.9,2.875,2.875,0,0,1-1.045-2.271,2.955,2.955,0,0,1,1.27-2.6,6.468,6.468,0,0,1,3.691-.879h1.016v-.557q0-1.455-1.26-1.455a1.027,1.027,0,0,0-1.172,1.152h-3.291a2.955,2.955,0,0,1,1.3-2.49,5.474,5.474,0,0,1,3.325-.957,4.8,4.8,0,0,1,3.193.986,3.429,3.429,0,0,1,1.2,2.705v4.678a4.79,4.79,0,0,0,.449,2.227V0Zm-2.061-2.148a1.836,1.836,0,0,0,1.021-.264,1.653,1.653,0,0,0,.581-.6V-4.7H-25.5q-1.719,0-1.719,1.543a.942.942,0,0,0,.3.728A1.1,1.1,0,0,0-26.143-2.148Zm12.256-.82a.76.76,0,0,0-.439-.674A6.685,6.685,0,0,0-16-4.17a7.615,7.615,0,0,1-2.031-.718,3.4,3.4,0,0,1-1.221-1.079,2.577,2.577,0,0,1-.42-1.455,2.92,2.92,0,0,1,1.2-2.4,4.948,4.948,0,0,1,3.145-.942,5.482,5.482,0,0,1,3.359.947,2.962,2.962,0,0,1,1.27,2.49h-3.3q0-1.27-1.338-1.27a1.326,1.326,0,0,0-.869.288.892.892,0,0,0-.352.718.819.819,0,0,0,.43.713,4.06,4.06,0,0,0,1.372.449,11.857,11.857,0,0,1,1.655.42,3.007,3.007,0,0,1,2.383,2.939A2.767,2.767,0,0,1-12-.713,5.632,5.632,0,0,1-15.322.2a5.747,5.747,0,0,1-2.422-.488A4.05,4.05,0,0,1-19.4-1.621,3.007,3.007,0,0,1-20-3.389h3.076a1.272,1.272,0,0,0,.488,1.069,2.009,2.009,0,0,0,1.2.337,1.58,1.58,0,0,0,1.011-.273A.875.875,0,0,0-13.887-2.969Zm9.277-2.393A6.455,6.455,0,0,1-3.525-9.316,3.568,3.568,0,0,1-.5-10.762,3.035,3.035,0,0,1,1.885-9.648V-15h3.3V0H2.227L2.061-1.133A3.116,3.116,0,0,1-.518.2,3.562,3.562,0,0,1-3.506-1.25,6.659,6.659,0,0,1-4.609-5.361Zm3.291.205q0,2.813,1.641,2.813a1.62,1.62,0,0,0,1.563-.918V-7.285A1.576,1.576,0,0,0,.342-8.223q-1.523,0-1.65,2.461ZM12.168.2a5.432,5.432,0,0,1-3.936-1.45,5.008,5.008,0,0,1-1.5-3.774V-5.3a6.489,6.489,0,0,1,.6-2.861,4.395,4.395,0,0,1,1.753-1.919,5.292,5.292,0,0,1,2.734-.679A4.574,4.574,0,0,1,15.332-9.38a5.43,5.43,0,0,1,1.289,3.853v1.279H10.078a2.372,2.372,0,0,0,.771,1.4,2.3,2.3,0,0,0,1.543.508,2.958,2.958,0,0,0,2.441-1.094l1.5,1.777A4.2,4.2,0,0,1,14.595-.308,5.891,5.891,0,0,1,12.168.2ZM11.8-8.223q-1.445,0-1.719,1.914H13.4v-.254A1.63,1.63,0,0,0,13-7.788,1.593,1.593,0,0,0,11.8-8.223Zm15.6,5.879a1.464,1.464,0,0,0,1.074-.376,1.379,1.379,0,0,0,.371-1.05h3.086A3.653,3.653,0,0,1,30.679-.918,4.631,4.631,0,0,1,27.471.2,4.689,4.689,0,0,1,23.838-1.25a5.7,5.7,0,0,1-1.328-4v-.137A6.436,6.436,0,0,1,23.1-8.218,4.3,4.3,0,0,1,24.8-10.1a5.081,5.081,0,0,1,2.637-.659,4.573,4.573,0,0,1,3.271,1.143,4.053,4.053,0,0,1,1.211,3.1H28.838a1.807,1.807,0,0,0-.4-1.26,1.382,1.382,0,0,0-1.074-.439q-1.279,0-1.494,1.631A11.508,11.508,0,0,0,25.8-5.166a4.52,4.52,0,0,0,.381,2.207A1.319,1.319,0,0,0,27.393-2.344ZM32.9-5.381A6.236,6.236,0,0,1,33.516-8.2a4.4,4.4,0,0,1,1.768-1.9,5.323,5.323,0,0,1,2.705-.664,4.858,4.858,0,0,1,3.74,1.47,5.64,5.64,0,0,1,1.367,4v.117a5.472,5.472,0,0,1-1.372,3.921A4.871,4.871,0,0,1,38.008.2a4.927,4.927,0,0,1-3.623-1.353A5.29,5.29,0,0,1,32.91-4.824Zm3.291.205a3.932,3.932,0,0,0,.459,2.148,1.529,1.529,0,0,0,1.357.684q1.758,0,1.8-2.705v-.332q0-2.842-1.816-2.842-1.65,0-1.787,2.451Zm11.377-5.391.107,1.24a3.583,3.583,0,0,1,3.018-1.436,3.015,3.015,0,0,1,2.466.986A4.7,4.7,0,0,1,54-6.807V0H50.7V-6.67a1.783,1.783,0,0,0-.322-1.177,1.491,1.491,0,0,0-1.172-.376,1.569,1.569,0,0,0-1.436.762V0H44.482V-10.566Zm12.09-2.627v2.627H61.4v2.285H59.658v4.834a1.234,1.234,0,0,0,.215.83,1.152,1.152,0,0,0,.85.234,4.828,4.828,0,0,0,.82-.059V-.088A6.074,6.074,0,0,1,59.688.2a3.448,3.448,0,0,1-2.51-.8,3.282,3.282,0,0,1-.811-2.432V-8.281H55.02v-2.285h1.348v-2.627ZM67.8.2a5.432,5.432,0,0,1-3.936-1.45,5.008,5.008,0,0,1-1.5-3.774V-5.3a6.489,6.489,0,0,1,.6-2.861,4.395,4.395,0,0,1,1.753-1.919,5.292,5.292,0,0,1,2.734-.679A4.574,4.574,0,0,1,70.967-9.38a5.43,5.43,0,0,1,1.289,3.853v1.279H65.713a2.372,2.372,0,0,0,.771,1.4,2.3,2.3,0,0,0,1.543.508,2.958,2.958,0,0,0,2.441-1.094l1.5,1.777A4.2,4.2,0,0,1,70.229-.308,5.891,5.891,0,0,1,67.8.2Zm-.371-8.418q-1.445,0-1.719,1.914h3.32v-.254a1.63,1.63,0,0,0-.4-1.226A1.593,1.593,0,0,0,67.432-8.223Zm9.17-2.344.107,1.24a3.583,3.583,0,0,1,3.018-1.436,3.015,3.015,0,0,1,2.466.986,4.7,4.7,0,0,1,.845,2.969V0h-3.3V-6.67a1.783,1.783,0,0,0-.322-1.177,1.491,1.491,0,0,0-1.172-.376,1.569,1.569,0,0,0-1.436.762V0H73.516V-10.566ZM88.33,0h-3.3V-10.566h3.3Zm-3.5-13.291a1.469,1.469,0,0,1,.508-1.152,1.916,1.916,0,0,1,1.318-.449,1.916,1.916,0,0,1,1.318.449,1.469,1.469,0,0,1,.508,1.152,1.469,1.469,0,0,1-.508,1.152,1.916,1.916,0,0,1-1.318.449,1.916,1.916,0,0,1-1.318-.449A1.469,1.469,0,0,1,84.834-13.291Zm5.107,7.93a6.455,6.455,0,0,1,1.084-3.955,3.568,3.568,0,0,1,3.027-1.445,3.035,3.035,0,0,1,2.383,1.113V-15h3.3V0H96.777l-.166-1.133A3.116,3.116,0,0,1,94.033.2,3.562,3.562,0,0,1,91.045-1.25,6.659,6.659,0,0,1,89.941-5.361Zm3.291.205q0,2.813,1.641,2.813a1.62,1.62,0,0,0,1.563-.918V-7.285a1.576,1.576,0,0,0-1.543-.937q-1.523,0-1.65,2.461Zm7.959-.225a6.236,6.236,0,0,1,.615-2.817,4.4,4.4,0,0,1,1.768-1.9,5.323,5.323,0,0,1,2.705-.664,4.858,4.858,0,0,1,3.74,1.47,5.64,5.64,0,0,1,1.367,4v.117a5.472,5.472,0,0,1-1.372,3.921A4.871,4.871,0,0,1,106.3.2a4.927,4.927,0,0,1-3.623-1.353A5.29,5.29,0,0,1,101.2-4.824Zm3.291.205a3.932,3.932,0,0,0,.459,2.148,1.529,1.529,0,0,0,1.357.684q1.758,0,1.8-2.705v-.332q0-2.842-1.816-2.842-1.65,0-1.787,2.451Z" transform="translate(817.001 809.413)" fill="#12263f"/>
    <g id="Grupo_1113588" data-name="Grupo 1113588" transform="translate(792.837 832.913)">
      <path id="Trazado_873496" data-name="Trazado 873496" d="M-11801-8646v71.99" transform="translate(11811.664 8646.002)" fill="none" stroke="#114d74" stroke-width="2"/>
      <g id="Grupo_1099075" data-name="Grupo 1099075" transform="translate(0 56.208)">
        <g id="Grupo_1099074" data-name="Grupo 1099074" clip-path="url(#clip-path)">
          <path id="Trazado_873497" data-name="Trazado 873497" d="M21.182.857A21.249,21.249,0,0,0,10.848,19.1,21.248,21.248,0,0,0,.514.857" transform="translate(-0.184 -0.306)" fill="none" stroke="#114d74" stroke-miterlimit="10" stroke-width="2"/>
        </g>
      </g>
    </g>
    <g id="Grupo_1113589" data-name="Grupo 1113589" transform="translate(484.126 909.17)">
      <path id="Trazado_873496-2" data-name="Trazado 873496" d="M-11801-8646v39.077" transform="translate(11811.664 8646.002)" fill="none" stroke="#114d74" stroke-width="2"/>
      <g id="Grupo_1099075-2" data-name="Grupo 1099075" transform="translate(0 23.294)">
        <g id="Grupo_1099074-2" data-name="Grupo 1099074" clip-path="url(#clip-path)">
          <path id="Trazado_873497-2" data-name="Trazado 873497" d="M21.182.857A21.249,21.249,0,0,0,10.848,19.1,21.248,21.248,0,0,0,.514.857" transform="translate(-0.184 -0.306)" fill="none" stroke="#114d74" stroke-miterlimit="10" stroke-width="2"/>
        </g>
      </g>
    </g>
    <g id="Grupo_1113590" data-name="Grupo 1113590" transform="translate(682.917 909.913)">
      <path id="Trazado_873496-3" data-name="Trazado 873496" d="M-11801-8646v39.077" transform="translate(11811.664 8646.002)" fill="none" stroke="#114d74" stroke-width="2"/>
      <g id="Grupo_1099075-3" data-name="Grupo 1099075" transform="translate(0 23.294)">
        <g id="Grupo_1099074-3" data-name="Grupo 1099074" clip-path="url(#clip-path)">
          <path id="Trazado_873497-3" data-name="Trazado 873497" d="M21.182.857A21.249,21.249,0,0,0,10.848,19.1,21.248,21.248,0,0,0,.514.857" transform="translate(-0.184 -0.306)" fill="none" stroke="#114d74" stroke-miterlimit="10" stroke-width="2"/>
        </g>
      </g>
    </g>
    <g id="Grupo_1113591" data-name="Grupo 1113591" transform="translate(865.554 907.413)">
      <path id="Trazado_873496-4" data-name="Trazado 873496" d="M-11801-8646v39.077" transform="translate(11811.664 8646.002)" fill="none" stroke="#114d74" stroke-width="2"/>
      <g id="Grupo_1099075-4" data-name="Grupo 1099075" transform="translate(0 23.294)">
        <g id="Grupo_1099074-4" data-name="Grupo 1099074" clip-path="url(#clip-path)">
          <path id="Trazado_873497-4" data-name="Trazado 873497" d="M21.182.857A21.249,21.249,0,0,0,10.848,19.1,21.248,21.248,0,0,0,.514.857" transform="translate(-0.184 -0.306)" fill="none" stroke="#114d74" stroke-miterlimit="10" stroke-width="2"/>
        </g>
      </g>
    </g>
    <g id="Grupo_1113592" data-name="Grupo 1113592" transform="translate(1035.517 907.413)">
      <path id="Trazado_873496-5" data-name="Trazado 873496" d="M-11801-8646v39.077" transform="translate(11811.664 8646.002)" fill="none" stroke="#114d74" stroke-width="2"/>
      <g id="Grupo_1099075-5" data-name="Grupo 1099075" transform="translate(0 23.294)">
        <g id="Grupo_1099074-5" data-name="Grupo 1099074" clip-path="url(#clip-path)">
          <path id="Trazado_873497-5" data-name="Trazado 873497" d="M21.182.857A21.249,21.249,0,0,0,10.848,19.1,21.248,21.248,0,0,0,.514.857" transform="translate(-0.184 -0.306)" fill="none" stroke="#114d74" stroke-miterlimit="10" stroke-width="2"/>
        </g>
      </g>
    </g>
    <g id="Grupo_1113594" data-name="Grupo 1113594" transform="translate(1234.308 909.913)">
      <path id="Trazado_873496-6" data-name="Trazado 873496" d="M-11801-8646v39.077" transform="translate(11811.664 8646.002)" fill="none" stroke="#114d74" stroke-width="2"/>
      <g id="Grupo_1099075-6" data-name="Grupo 1099075" transform="translate(0 23.294)">
        <g id="Grupo_1099074-6" data-name="Grupo 1099074" clip-path="url(#clip-path)">
          <path id="Trazado_873497-6" data-name="Trazado 873497" d="M21.182.857A21.249,21.249,0,0,0,10.848,19.1,21.248,21.248,0,0,0,.514.857" transform="translate(-0.184 -0.306)" fill="none" stroke="#114d74" stroke-miterlimit="10" stroke-width="2"/>
        </g>
      </g>
    </g>
    <path id="Trazado_919691" data-name="Trazado 919691" d="M4.484-1.023a2.082,2.082,0,0,0,1.352-.469,1.649,1.649,0,0,0,.641-1.172H7.844a2.621,2.621,0,0,1-.5,1.383A3.293,3.293,0,0,1,6.113-.234,3.55,3.55,0,0,1,4.484.156,3.482,3.482,0,0,1,1.738-1,4.59,4.59,0,0,1,.719-4.148v-.242a5.089,5.089,0,0,1,.453-2.2,3.451,3.451,0,0,1,1.3-1.492,3.7,3.7,0,0,1,2-.531,3.39,3.39,0,0,1,2.363.852,3.043,3.043,0,0,1,1,2.211H6.477a1.992,1.992,0,0,0-.621-1.348,1.932,1.932,0,0,0-1.379-.527,2.023,2.023,0,0,0-1.707.793,3.724,3.724,0,0,0-.605,2.293v.273a3.65,3.65,0,0,0,.6,2.25A2.033,2.033,0,0,0,4.484-1.023ZM9.086-4.3a4.993,4.993,0,0,1,.488-2.234A3.643,3.643,0,0,1,10.934-8.07a3.7,3.7,0,0,1,1.988-.539,3.565,3.565,0,0,1,2.793,1.2,4.6,4.6,0,0,1,1.066,3.18v.1a5.036,5.036,0,0,1-.473,2.215A3.589,3.589,0,0,1,14.957-.391a3.743,3.743,0,0,1-2.02.547,3.556,3.556,0,0,1-2.785-1.2A4.575,4.575,0,0,1,9.086-4.2Zm1.453.172a3.616,3.616,0,0,0,.652,2.258,2.088,2.088,0,0,0,1.746.852,2.075,2.075,0,0,0,1.75-.863A3.955,3.955,0,0,0,15.336-4.3a3.61,3.61,0,0,0-.66-2.254,2.1,2.1,0,0,0-1.754-.863A2.075,2.075,0,0,0,11.2-6.57,3.925,3.925,0,0,0,10.539-4.133Zm9.422-4.32.047,1.063a3.08,3.08,0,0,1,2.531-1.219q2.68,0,2.7,3.023V0H23.8V-5.594a1.946,1.946,0,0,0-.418-1.352A1.675,1.675,0,0,0,22.1-7.383a2.086,2.086,0,0,0-1.234.375,2.546,2.546,0,0,0-.828.984V0H18.594V-8.453ZM29.383-10.5v2.047h1.578v1.117H29.383v5.242a1.171,1.171,0,0,0,.211.762.888.888,0,0,0,.719.254A3.5,3.5,0,0,0,31-1.172V0a4.19,4.19,0,0,1-1.109.156A1.8,1.8,0,0,1,28.43-.43a2.517,2.517,0,0,1-.492-1.664V-7.336H26.4V-8.453h1.539V-10.5ZM34.219,0H32.773V-8.453h1.445ZM32.656-10.7a.863.863,0,0,1,.215-.594.807.807,0,0,1,.637-.242.819.819,0,0,1,.641.242.854.854,0,0,1,.219.594.826.826,0,0,1-.219.586.834.834,0,0,1-.641.234.821.821,0,0,1-.637-.234A.834.834,0,0,1,32.656-10.7ZM40.039.156a3.693,3.693,0,0,1-2.8-1.129,4.19,4.19,0,0,1-1.078-3.02v-.266a5.073,5.073,0,0,1,.48-2.246,3.748,3.748,0,0,1,1.344-1.547,3.378,3.378,0,0,1,1.871-.559,3.166,3.166,0,0,1,2.563,1.086,4.7,4.7,0,0,1,.914,3.109v.6H37.609a3,3,0,0,0,.73,2.02,2.3,2.3,0,0,0,1.777.77,2.517,2.517,0,0,0,1.3-.312,3.259,3.259,0,0,0,.93-.828l.883.688A3.55,3.55,0,0,1,40.039.156Zm-.18-7.578a1.928,1.928,0,0,0-1.469.637A3.1,3.1,0,0,0,37.656-5h4.234v-.109A2.753,2.753,0,0,0,41.3-6.816,1.815,1.815,0,0,0,39.859-7.422Zm6.516-1.031.047,1.063a3.08,3.08,0,0,1,2.531-1.219q2.68,0,2.7,3.023V0H50.211V-5.594a1.946,1.946,0,0,0-.418-1.352,1.675,1.675,0,0,0-1.277-.437,2.086,2.086,0,0,0-1.234.375,2.546,2.546,0,0,0-.828.984V0H45.008V-8.453ZM57.344.156a3.693,3.693,0,0,1-2.8-1.129,4.19,4.19,0,0,1-1.078-3.02v-.266a5.073,5.073,0,0,1,.48-2.246,3.748,3.748,0,0,1,1.344-1.547,3.378,3.378,0,0,1,1.871-.559,3.166,3.166,0,0,1,2.563,1.086,4.7,4.7,0,0,1,.914,3.109v.6H54.914a3,3,0,0,0,.73,2.02,2.3,2.3,0,0,0,1.777.77,2.517,2.517,0,0,0,1.3-.312,3.259,3.259,0,0,0,.93-.828l.883.688A3.55,3.55,0,0,1,57.344.156Zm-.18-7.578a1.928,1.928,0,0,0-1.469.637A3.1,3.1,0,0,0,54.961-5H59.2v-.109A2.753,2.753,0,0,0,58.6-6.816,1.815,1.815,0,0,0,57.164-7.422Z" transform="translate(810.001 866.413)" fill="#12263f"/>
    <g id="Grupo_1113595" data-name="Grupo 1113595" transform="translate(301.999 907.913)">
      <path id="Trazado_873496-7" data-name="Trazado 873496" d="M-11801-8605.668V-8646h932.31" transform="translate(11811.665 8646.002)" fill="none" stroke="#114d74" stroke-width="2"/>
      <g id="Grupo_1099075-7" data-name="Grupo 1099075" transform="translate(0 24.551)">
        <g id="Grupo_1099074-7" data-name="Grupo 1099074" clip-path="url(#clip-path)">
          <path id="Trazado_873497-7" data-name="Trazado 873497" d="M21.182.857A21.249,21.249,0,0,0,10.848,19.1,21.248,21.248,0,0,0,.514.857" transform="translate(-0.184 -0.306)" fill="none" stroke="#114d74" stroke-miterlimit="10" stroke-width="2"/>
        </g>
      </g>
    </g>
    <g id="Grupo_1113656" data-name="Grupo 1113656" transform="translate(-29 0.743)">
      <g id="Grupo_1113640" data-name="Grupo 1113640" transform="translate(132.832)">
        <rect id="Rectángulo_411171" data-name="Rectángulo 411171" width="142.471" height="69.148" rx="11" transform="translate(876.501 951.257)" fill="#85e5aa"/>
        <text id="Herramientas_de_Producción" data-name="Herramientas 
de Producción" transform="translate(945.185 980.767)" fill="#12263f" font-size="16" font-family="Roboto-Bold, Roboto" font-weight="700"><tspan x="-50.934" y="0">Herramientas </tspan><tspan x="-51.738" y="24">de Producción</tspan></text>
      </g>
      <rect id="Rectángulo_411221" data-name="Rectángulo 411221" width="129.525" height="57.559" rx="11" transform="translate(1032.833 1071.063)" fill="#e6faee"/>
      <rect id="Rectángulo_411219" data-name="Rectángulo 411219" width="126.027" height="57.559" rx="11" transform="translate(1034.581 1130.885)" fill="#e6faee"/>
      <text id="Texto_imagen_y_sonido." data-name="Texto, imagen
 y sonido." transform="translate(1052.036 1093.53)" fill="#12263f" font-size="16" font-family="Roboto-Regular, Roboto"><tspan x="0" y="0">Texto, imagen</tspan><tspan x="0" y="24" xml:space="preserve"> y sonido.</tspan></text>
      <text id="Calidad_de_los_recursos._" data-name="Calidad de 
los recursos. 
" transform="translate(1055.021 1153.352)" fill="#12263f" font-size="16" font-family="Roboto-Regular, Roboto"><tspan x="0" y="0">Calidad de </tspan><tspan x="0" y="24">los recursos. </tspan><tspan x="0" y="48"></tspan></text>
      <text id="contiene" transform="translate(1051.185 1036.662)" fill="#12263f" font-size="16" font-family="Roboto-Regular, Roboto"><tspan x="0" y="0">contiene</tspan></text>
      <path id="Trazado_917887" data-name="Trazado 917887" d="M-10775.877-8792.706v22.185h-74.485v95.891" transform="translate(11859.695 9833.964)" fill="none" stroke="#114d74" stroke-width="2"/>
      <g id="Grupo_1113650" data-name="Grupo 1113650" transform="translate(1009.333 1107.256) rotate(-90)">
        <path id="Trazado_873496-8" data-name="Trazado 873496" d="M-11801-8646v19.46" transform="translate(11808.414 8646.002)" fill="none" stroke="#114d74" stroke-width="2"/>
        <g id="Grupo_1099075-8" data-name="Grupo 1099075" transform="translate(0 8.488)">
          <g id="Grupo_1099074-8" data-name="Grupo 1099074" clip-path="url(#clip-path-8)">
            <path id="Trazado_873497-8" data-name="Trazado 873497" d="M14.883.857A14.773,14.773,0,0,0,7.7,13.539,14.772,14.772,0,0,0,.514.857" transform="translate(-0.284 -0.474)" fill="none" stroke="#114d74" stroke-miterlimit="10" stroke-width="2"/>
          </g>
        </g>
      </g>
      <g id="Grupo_1113651" data-name="Grupo 1113651" transform="translate(1009.333 1167.078) rotate(-90)">
        <path id="Trazado_873496-9" data-name="Trazado 873496" d="M-11801-8646v19.46" transform="translate(11808.414 8646.002)" fill="none" stroke="#114d74" stroke-width="2"/>
        <g id="Grupo_1099075-9" data-name="Grupo 1099075" transform="translate(0 8.488)">
          <g id="Grupo_1099074-9" data-name="Grupo 1099074" clip-path="url(#clip-path-8)">
            <path id="Trazado_873497-9" data-name="Trazado 873497" d="M14.883.857A14.773,14.773,0,0,0,7.7,13.539,14.772,14.772,0,0,0,.514.857" transform="translate(-0.284 -0.474)" fill="none" stroke="#114d74" stroke-miterlimit="10" stroke-width="2"/>
          </g>
        </g>
      </g>
    </g>
    <g id="Grupo_1113655" data-name="Grupo 1113655" transform="translate(-45.225 0.743)">
      <rect id="Rectángulo_411222" data-name="Rectángulo 411222" width="115.941" height="80.279" rx="11" transform="translate(1237.333 1071.062)" fill="#fef7ef"/>
      <rect id="Rectángulo_411225" data-name="Rectángulo 411225" width="117.027" height="57.559" rx="11" transform="translate(1239.274 1153.934)" fill="#fef7ef"/>
      <rect id="Rectángulo_411226" data-name="Rectángulo 411226" width="98.264" height="57.559" rx="11" transform="translate(1239.274 1216.934)" fill="#fef7ef"/>
      <text id="Redacción_persuasiva_y_creativa." data-name="Redacción 
persuasiva 
y creativa." transform="translate(1258.292 1093.529)" fill="#12263f" font-size="16" font-family="Roboto-Regular, Roboto"><tspan x="0" y="0">Redacción </tspan><tspan x="0" y="24">persuasiva </tspan><tspan x="0" y="48">y creativa.</tspan></text>
      <text id="Captación_de_atención." data-name="Captación 
de atención." transform="translate(1259.521 1176.4)" fill="#12263f" font-size="16" font-family="Roboto-Regular, Roboto"><tspan x="0" y="0">Captación </tspan><tspan x="0" y="24">de atención.</tspan></text>
      <text id="Mensajes_breves." data-name="Mensajes 
breves." transform="translate(1259.521 1239.4)" fill="#12263f" font-size="16" font-family="Roboto-Regular, Roboto"><tspan x="0" y="0">Mensajes </tspan><tspan x="0" y="24">breves.</tspan></text>
      <g id="Grupo_1113644" data-name="Grupo 1113644" transform="translate(-0.484)">
        <rect id="Rectángulo_411183" data-name="Rectángulo 411183" width="119.471" height="69.148" rx="11" transform="translate(1225.817 951.257)" fill="#f8aa5e"/>
        <text id="Técnicas_de_Escritura" data-name="Técnicas 
de Escritura" transform="translate(1283.501 980.767)" fill="#12263f" font-size="16" font-family="Roboto-Bold, Roboto" font-weight="700"><tspan x="-34.613" y="0">Técnicas </tspan><tspan x="-42.918" y="24">de Escritura</tspan></text>
      </g>
      <text id="contiene-2" data-name="contiene" transform="translate(1257.44 1036.662)" fill="#12263f" font-size="16" font-family="Roboto-Regular, Roboto"><tspan x="0" y="0">contiene</tspan></text>
      <path id="Trazado_917888" data-name="Trazado 917888" d="M-10775.877-8792.706v22.185h-74.485v181.9" transform="translate(12065.008 9834.625)" fill="none" stroke="#114d74" stroke-width="2"/>
      <g id="Grupo_1113652" data-name="Grupo 1113652" transform="translate(1214.558 1118.615) rotate(-90)">
        <path id="Trazado_873496-10" data-name="Trazado 873496" d="M-11801-8646v19.46" transform="translate(11808.414 8646.002)" fill="none" stroke="#114d74" stroke-width="2"/>
        <g id="Grupo_1099075-10" data-name="Grupo 1099075" transform="translate(0 8.488)">
          <g id="Grupo_1099074-10" data-name="Grupo 1099074" clip-path="url(#clip-path-8)">
            <path id="Trazado_873497-10" data-name="Trazado 873497" d="M14.883.857A14.773,14.773,0,0,0,7.7,13.539,14.772,14.772,0,0,0,.514.857" transform="translate(-0.284 -0.474)" fill="none" stroke="#114d74" stroke-miterlimit="10" stroke-width="2"/>
          </g>
        </g>
      </g>
      <g id="Grupo_1113653" data-name="Grupo 1113653" transform="translate(1214.646 1188.443) rotate(-90)">
        <path id="Trazado_873496-11" data-name="Trazado 873496" d="M-11801-8646v19.46" transform="translate(11808.414 8646.002)" fill="none" stroke="#114d74" stroke-width="2"/>
        <g id="Grupo_1099075-11" data-name="Grupo 1099075" transform="translate(0 8.488)">
          <g id="Grupo_1099074-11" data-name="Grupo 1099074" clip-path="url(#clip-path-8)">
            <path id="Trazado_873497-11" data-name="Trazado 873497" d="M14.883.857A14.773,14.773,0,0,0,7.7,13.539,14.772,14.772,0,0,0,.514.857" transform="translate(-0.284 -0.474)" fill="none" stroke="#114d74" stroke-miterlimit="10" stroke-width="2"/>
          </g>
        </g>
      </g>
      <g id="Grupo_1113654" data-name="Grupo 1113654" transform="translate(1215.78 1253.127) rotate(-90)">
        <path id="Trazado_873496-12" data-name="Trazado 873496" d="M-11801-8646v19.46" transform="translate(11808.414 8646.002)" fill="none" stroke="#114d74" stroke-width="2"/>
        <g id="Grupo_1099075-12" data-name="Grupo 1099075" transform="translate(0 8.488)">
          <g id="Grupo_1099074-12" data-name="Grupo 1099074" clip-path="url(#clip-path-8)">
            <path id="Trazado_873497-12" data-name="Trazado 873497" d="M14.883.857A14.773,14.773,0,0,0,7.7,13.539,14.772,14.772,0,0,0,.514.857" transform="translate(-0.284 -0.474)" fill="none" stroke="#114d74" stroke-miterlimit="10" stroke-width="2"/>
          </g>
        </g>
      </g>
    </g>
    <g id="Grupo_1113659" data-name="Grupo 1113659" transform="translate(36.744 0.743)">
      <g id="Grupo_1113642" data-name="Grupo 1113642" transform="translate(33.832)">
        <rect id="Rectángulo_411170" data-name="Rectángulo 411170" width="127.684" height="69.148" rx="11" transform="translate(361.501 951.257)" fill="#f8aa5e"/>
        <text id="Estrategias_de_contenidos" data-name="Estrategias 
de contenidos" transform="translate(429.353 980.501)" fill="#12263f" font-size="16" font-family="Roboto-Bold, Roboto" font-weight="700"><tspan x="-42.516" y="0">Estrategias </tspan><tspan x="-50.773" y="24">de contenidos</tspan></text>
      </g>
      <rect id="Rectángulo_411208" data-name="Rectángulo 411208" width="112.525" height="57.559" rx="11" transform="translate(405.333 1070.401)" fill="#fef7ef"/>
      <rect id="Rectángulo_411207" data-name="Rectángulo 411207" width="137.027" height="36.194" rx="11" transform="translate(405.333 1196.334)" fill="#fef7ef"/>
      <rect id="Rectángulo_411209" data-name="Rectángulo 411209" width="126.027" height="36.194" rx="11" transform="translate(405.333 1235.301)" fill="#fef7ef"/>
      <rect id="Rectángulo_411206" data-name="Rectángulo 411206" width="126.027" height="57.559" rx="11" transform="translate(405.333 1133.367)" fill="#fef7ef"/>
      <text id="Narrativas_comunes." data-name="Narrativas 
comunes." transform="translate(426.292 1092.869)" fill="#12263f" font-size="16" font-family="Roboto-Regular, Roboto"><tspan x="0" y="0">Narrativas </tspan><tspan x="0" y="24">comunes.</tspan></text>
      <text id="Casos_de_éxito." data-name="Casos de éxito." transform="translate(420.831 1219.933)" fill="#12263f" font-size="16" font-family="Roboto-Regular, Roboto"><tspan x="0" y="0">Casos de éxito.</tspan></text>
      <text id="Engagement." transform="translate(423.347 1258.899)" fill="#12263f" font-size="16" font-family="Roboto-Italic, Roboto" font-style="italic"><tspan x="0" y="0">Engagement.</tspan></text>
      <text id="Adaptación_de_narrativas." data-name="Adaptación 
de narrativas." transform="translate(425.579 1155.836)" fill="#12263f" font-size="16" font-family="Roboto-Regular, Roboto"><tspan x="0" y="0">Adaptación </tspan><tspan x="0" y="24">de narrativas.</tspan></text>
      <text id="contiene-3" data-name="contiene" transform="translate(425.44 1036.002)" fill="#12263f" font-size="16" font-family="Roboto-Regular, Roboto"><tspan x="0" y="0">contiene</tspan></text>
      <path id="Trazado_917884" data-name="Trazado 917884" d="M-10775.877-8792.706v22.185h-74.485v189.22" transform="translate(11233.951 9833.303)" fill="none" stroke="#114d74" stroke-width="2"/>
      <g id="Grupo_1113632" data-name="Grupo 1113632" transform="translate(383.589 1107.608) rotate(-90)">
        <path id="Trazado_873496-13" data-name="Trazado 873496" d="M-11801-8646v19.46" transform="translate(11808.414 8646.002)" fill="none" stroke="#114d74" stroke-width="2"/>
        <g id="Grupo_1099075-13" data-name="Grupo 1099075" transform="translate(0 8.488)">
          <g id="Grupo_1099074-13" data-name="Grupo 1099074" clip-path="url(#clip-path-8)">
            <path id="Trazado_873497-13" data-name="Trazado 873497" d="M14.883.857A14.773,14.773,0,0,0,7.7,13.539,14.772,14.772,0,0,0,.514.857" transform="translate(-0.284 -0.474)" fill="none" stroke="#114d74" stroke-miterlimit="10" stroke-width="2"/>
          </g>
        </g>
      </g>
      <g id="Grupo_1113633" data-name="Grupo 1113633" transform="translate(383.589 1165.51) rotate(-90)">
        <path id="Trazado_873496-14" data-name="Trazado 873496" d="M-11801-8646v19.46" transform="translate(11808.414 8646.002)" fill="none" stroke="#114d74" stroke-width="2"/>
        <g id="Grupo_1099075-14" data-name="Grupo 1099075" transform="translate(0 8.488)">
          <g id="Grupo_1099074-14" data-name="Grupo 1099074" clip-path="url(#clip-path-8)">
            <path id="Trazado_873497-14" data-name="Trazado 873497" d="M14.883.857A14.773,14.773,0,0,0,7.7,13.539,14.772,14.772,0,0,0,.514.857" transform="translate(-0.284 -0.474)" fill="none" stroke="#114d74" stroke-miterlimit="10" stroke-width="2"/>
          </g>
        </g>
      </g>
      <g id="Grupo_1113634" data-name="Grupo 1113634" transform="translate(383.78 1219.847) rotate(-90)">
        <path id="Trazado_873496-15" data-name="Trazado 873496" d="M-11801-8646v19.46" transform="translate(11808.414 8646.002)" fill="none" stroke="#114d74" stroke-width="2"/>
        <g id="Grupo_1099075-15" data-name="Grupo 1099075" transform="translate(0 8.488)">
          <g id="Grupo_1099074-15" data-name="Grupo 1099074" clip-path="url(#clip-path-8)">
            <path id="Trazado_873497-15" data-name="Trazado 873497" d="M14.883.857A14.773,14.773,0,0,0,7.7,13.539,14.772,14.772,0,0,0,.514.857" transform="translate(-0.284 -0.474)" fill="none" stroke="#114d74" stroke-miterlimit="10" stroke-width="2"/>
          </g>
        </g>
      </g>
      <g id="Grupo_1113635" data-name="Grupo 1113635" transform="translate(383.78 1258.436) rotate(-90)">
        <path id="Trazado_873496-16" data-name="Trazado 873496" d="M-11801-8646v19.46" transform="translate(11808.414 8646.002)" fill="none" stroke="#114d74" stroke-width="2"/>
        <g id="Grupo_1099075-16" data-name="Grupo 1099075" transform="translate(0 8.488)">
          <g id="Grupo_1099074-16" data-name="Grupo 1099074" clip-path="url(#clip-path-8)">
            <path id="Trazado_873497-16" data-name="Trazado 873497" d="M14.883.857A14.773,14.773,0,0,0,7.7,13.539,14.772,14.772,0,0,0,.514.857" transform="translate(-0.284 -0.474)" fill="none" stroke="#114d74" stroke-miterlimit="10" stroke-width="2"/>
          </g>
        </g>
      </g>
    </g>
    <g id="Grupo_1113657" data-name="Grupo 1113657" transform="translate(8 0.743)">
      <g id="Grupo_1113645" data-name="Grupo 1113645" transform="translate(93.832)">
        <rect id="Rectángulo_411175" data-name="Rectángulo 411175" width="134" height="69.148" rx="11" transform="translate(706.501 951.257)" fill="#f8aa5e"/>
        <text id="Producción_de_contenidos_" data-name="Producción de
 contenidos
" transform="translate(772.185 980.767)" fill="#12263f" font-size="16" font-family="Roboto-Bold, Roboto" font-weight="700"><tspan x="-51.738" y="0">Producción de</tspan><tspan x="-41.941" y="24" xml:space="preserve"> contenidos</tspan><tspan x="0" y="48"></tspan></text>
      </g>
      <rect id="Rectángulo_411215" data-name="Rectángulo 411215" width="94.027" height="36.194" rx="11" transform="translate(822.077 1161.701)" fill="#fef7ef"/>
      <rect id="Rectángulo_411217" data-name="Rectángulo 411217" width="68.027" height="36.194" rx="11" transform="translate(822.077 1083.768)" fill="#fef7ef"/>
      <rect id="Rectángulo_411216" data-name="Rectángulo 411216" width="114.027" height="36.194" rx="11" transform="translate(822.077 1200.668)" fill="#fef7ef"/>
      <rect id="Rectángulo_411218" data-name="Rectángulo 411218" width="94.027" height="36.194" rx="11" transform="translate(822.077 1122.734)" fill="#fef7ef"/>
      <text id="Técnicas." transform="translate(837.575 1185.3)" fill="#12263f" font-size="16" font-family="Roboto-Regular, Roboto"><tspan x="0" y="0">Técnicas.</tspan></text>
      <text id="Tipos." transform="translate(837.575 1107.365)" fill="#12263f" font-size="16" font-family="Roboto-Regular, Roboto"><tspan x="0" y="0">Tipos.</tspan></text>
      <text id="Adaptación." transform="translate(840.091 1224.267)" fill="#12263f" font-size="16" font-family="Roboto-Italic, Roboto" font-style="italic"><tspan x="0" y="0">Adaptación.</tspan></text>
      <text id="Proceso." transform="translate(840.091 1146.332)" fill="#12263f" font-size="16" font-family="Roboto-Italic, Roboto" font-style="italic"><tspan x="0" y="0">Proceso.</tspan></text>
      <text id="contiene-4" data-name="contiene" transform="translate(842.185 1037.658)" fill="#12263f" font-size="16" font-family="Roboto-Regular, Roboto"><tspan x="0" y="0">contiene</tspan></text>
      <path id="Trazado_917886" data-name="Trazado 917886" d="M-10775.877-8792.706v22.185h-74.485v158.063" transform="translate(11650.695 9834.959)" fill="none" stroke="#114d74" stroke-width="2"/>
      <g id="Grupo_1113646" data-name="Grupo 1113646" transform="translate(800.333 1109.265) rotate(-90)">
        <path id="Trazado_873496-17" data-name="Trazado 873496" d="M-11801-8646v19.46" transform="translate(11808.414 8646.002)" fill="none" stroke="#114d74" stroke-width="2"/>
        <g id="Grupo_1099075-17" data-name="Grupo 1099075" transform="translate(0 8.488)">
          <g id="Grupo_1099074-17" data-name="Grupo 1099074" clip-path="url(#clip-path-8)">
            <path id="Trazado_873497-17" data-name="Trazado 873497" d="M14.883.857A14.773,14.773,0,0,0,7.7,13.539,14.772,14.772,0,0,0,.514.857" transform="translate(-0.284 -0.474)" fill="none" stroke="#114d74" stroke-miterlimit="10" stroke-width="2"/>
          </g>
        </g>
      </g>
      <g id="Grupo_1113647" data-name="Grupo 1113647" transform="translate(800.333 1148.246) rotate(-90)">
        <path id="Trazado_873496-18" data-name="Trazado 873496" d="M-11801-8646v19.46" transform="translate(11808.414 8646.002)" fill="none" stroke="#114d74" stroke-width="2"/>
        <g id="Grupo_1099075-18" data-name="Grupo 1099075" transform="translate(0 8.488)">
          <g id="Grupo_1099074-18" data-name="Grupo 1099074" clip-path="url(#clip-path-8)">
            <path id="Trazado_873497-18" data-name="Trazado 873497" d="M14.883.857A14.773,14.773,0,0,0,7.7,13.539,14.772,14.772,0,0,0,.514.857" transform="translate(-0.284 -0.474)" fill="none" stroke="#114d74" stroke-miterlimit="10" stroke-width="2"/>
          </g>
        </g>
      </g>
      <g id="Grupo_1113648" data-name="Grupo 1113648" transform="translate(800.333 1187.228) rotate(-90)">
        <path id="Trazado_873496-19" data-name="Trazado 873496" d="M-11801-8646v19.46" transform="translate(11808.414 8646.002)" fill="none" stroke="#114d74" stroke-width="2"/>
        <g id="Grupo_1099075-19" data-name="Grupo 1099075" transform="translate(0 8.488)">
          <g id="Grupo_1099074-19" data-name="Grupo 1099074" clip-path="url(#clip-path-8)">
            <path id="Trazado_873497-19" data-name="Trazado 873497" d="M14.883.857A14.773,14.773,0,0,0,7.7,13.539,14.772,14.772,0,0,0,.514.857" transform="translate(-0.284 -0.474)" fill="none" stroke="#114d74" stroke-miterlimit="10" stroke-width="2"/>
          </g>
        </g>
      </g>
      <g id="Grupo_1113649" data-name="Grupo 1113649" transform="translate(800.333 1229.32) rotate(-90)">
        <path id="Trazado_873496-20" data-name="Trazado 873496" d="M-11801-8646v19.46" transform="translate(11808.414 8646.002)" fill="none" stroke="#114d74" stroke-width="2"/>
        <g id="Grupo_1099075-20" data-name="Grupo 1099075" transform="translate(0 8.488)">
          <g id="Grupo_1099074-20" data-name="Grupo 1099074" clip-path="url(#clip-path-8)">
            <path id="Trazado_873497-20" data-name="Trazado 873497" d="M14.883.857A14.773,14.773,0,0,0,7.7,13.539,14.772,14.772,0,0,0,.514.857" transform="translate(-0.284 -0.474)" fill="none" stroke="#114d74" stroke-miterlimit="10" stroke-width="2"/>
          </g>
        </g>
      </g>
    </g>
    <g id="Grupo_1113658" data-name="Grupo 1113658" transform="translate(26.818 0.743)">
      <rect id="Rectángulo_411213" data-name="Rectángulo 411213" width="108.525" height="57.559" rx="11" transform="translate(613.976 1164.348)" fill="#e6faee"/>
      <rect id="Rectángulo_411211" data-name="Rectángulo 411211" width="113.516" height="36.194" rx="11" transform="translate(612.985 1124.75)" fill="#e6faee"/>
      <rect id="Rectángulo_411214" data-name="Rectángulo 411214" width="127.027" height="36.194" rx="11" transform="translate(617.985 1226.814)" fill="#e6faee"/>
      <rect id="Rectángulo_411210" data-name="Rectángulo 411210" width="100.498" height="36.194" rx="11" transform="translate(612.985 1085.153)" fill="#e6faee"/>
      <text id="Mapas_de_contenido." data-name="Mapas de 
contenido." transform="translate(634.935 1186.815)" fill="#12263f" font-size="16" font-family="Roboto-Regular, Roboto"><tspan x="0" y="0">Mapas de </tspan><tspan x="0" y="24">contenido.</tspan></text>
      <text id="Calendarios." transform="translate(628.483 1148.349)" fill="#12263f" font-size="16" font-family="Roboto-Regular, Roboto"><tspan x="0" y="0">Calendarios.</tspan></text>
      <text id="Herramientas." transform="translate(633.483 1250.413)" fill="#12263f" font-size="16" font-family="Roboto-Regular, Roboto"><tspan x="0" y="0">Herramientas.</tspan></text>
      <text id="Objetivos." transform="translate(630.999 1108.752)" fill="#12263f" font-size="16" font-family="Roboto-Regular, Roboto"><tspan x="0" y="0">Objetivos.</tspan></text>
      <g id="Grupo_1113641" data-name="Grupo 1113641" transform="translate(54.031)">
        <rect id="Rectángulo_411186" data-name="Rectángulo 411186" width="128.199" height="69.148" rx="11" transform="translate(543.302 951.257)" fill="#85e5aa"/>
        <text id="Planificación_estratégica" data-name="Planificación
 estratégica" transform="translate(604.985 980.767)" fill="#12263f" font-size="16" font-family="Roboto-Bold, Roboto" font-weight="700"><tspan x="-46.797" y="0">Planificación</tspan><tspan x="-42.398" y="24" xml:space="preserve"> estratégica</tspan></text>
      </g>
      <text id="contiene-5" data-name="contiene" transform="translate(630.366 1037.658)" fill="#12263f" font-size="16" font-family="Roboto-Regular, Roboto"><tspan x="0" y="0">contiene</tspan></text>
      <path id="Trazado_917885" data-name="Trazado 917885" d="M-10775.877-8792.706v22.185h-74.485v189.22" transform="translate(11438.877 9834.959)" fill="none" stroke="#114d74" stroke-width="2"/>
      <g id="Grupo_1113636" data-name="Grupo 1113636" transform="translate(588.515 1111.266) rotate(-90)">
        <path id="Trazado_873496-21" data-name="Trazado 873496" d="M-11801-8646v19.46" transform="translate(11808.414 8646.002)" fill="none" stroke="#114d74" stroke-width="2"/>
        <g id="Grupo_1099075-21" data-name="Grupo 1099075" transform="translate(0 8.488)">
          <g id="Grupo_1099074-21" data-name="Grupo 1099074" clip-path="url(#clip-path-8)">
            <path id="Trazado_873497-21" data-name="Trazado 873497" d="M14.883.857A14.773,14.773,0,0,0,7.7,13.539,14.772,14.772,0,0,0,.514.857" transform="translate(-0.284 -0.474)" fill="none" stroke="#114d74" stroke-miterlimit="10" stroke-width="2"/>
          </g>
        </g>
      </g>
      <g id="Grupo_1113637" data-name="Grupo 1113637" transform="translate(588.515 1169.166) rotate(-90)">
        <path id="Trazado_873496-22" data-name="Trazado 873496" d="M-11801-8646v19.46" transform="translate(11808.414 8646.002)" fill="none" stroke="#114d74" stroke-width="2"/>
        <g id="Grupo_1099075-22" data-name="Grupo 1099075" transform="translate(0 8.488)">
          <g id="Grupo_1099074-22" data-name="Grupo 1099074" clip-path="url(#clip-path-8)">
            <path id="Trazado_873497-22" data-name="Trazado 873497" d="M14.883.857A14.773,14.773,0,0,0,7.7,13.539,14.772,14.772,0,0,0,.514.857" transform="translate(-0.284 -0.474)" fill="none" stroke="#114d74" stroke-miterlimit="10" stroke-width="2"/>
          </g>
        </g>
      </g>
      <g id="Grupo_1113638" data-name="Grupo 1113638" transform="translate(588.706 1223.504) rotate(-90)">
        <path id="Trazado_873496-23" data-name="Trazado 873496" d="M-11801-8646v19.46" transform="translate(11808.414 8646.002)" fill="none" stroke="#114d74" stroke-width="2"/>
        <g id="Grupo_1099075-23" data-name="Grupo 1099075" transform="translate(0 8.488)">
          <g id="Grupo_1099074-23" data-name="Grupo 1099074" clip-path="url(#clip-path-8)">
            <path id="Trazado_873497-23" data-name="Trazado 873497" d="M14.883.857A14.773,14.773,0,0,0,7.7,13.539,14.772,14.772,0,0,0,.514.857" transform="translate(-0.284 -0.474)" fill="none" stroke="#114d74" stroke-miterlimit="10" stroke-width="2"/>
          </g>
        </g>
      </g>
      <g id="Grupo_1113639" data-name="Grupo 1113639" transform="translate(588.706 1262.093) rotate(-90)">
        <path id="Trazado_873496-24" data-name="Trazado 873496" d="M-11801-8646v19.46" transform="translate(11808.414 8646.002)" fill="none" stroke="#114d74" stroke-width="2"/>
        <g id="Grupo_1099075-24" data-name="Grupo 1099075" transform="translate(0 8.488)">
          <g id="Grupo_1099074-24" data-name="Grupo 1099074" clip-path="url(#clip-path-8)">
            <path id="Trazado_873497-24" data-name="Trazado 873497" d="M14.883.857A14.773,14.773,0,0,0,7.7,13.539,14.772,14.772,0,0,0,.514.857" transform="translate(-0.284 -0.474)" fill="none" stroke="#114d74" stroke-miterlimit="10" stroke-width="2"/>
          </g>
        </g>
      </g>
    </g>
    <g id="Grupo_1113660" data-name="Grupo 1113660" transform="translate(47.5 0.743)">
      <rect id="Rectángulo_411179" data-name="Rectángulo 411179" width="112.525" height="57.559" rx="11" transform="translate(210.333 1050.805)" fill="#e6faee"/>
      <rect id="Rectángulo_411204" data-name="Rectángulo 411204" width="126.027" height="36.194" rx="11" transform="translate(210.333 1113.715)" fill="#e6faee"/>
      <rect id="Rectángulo_411205" data-name="Rectángulo 411205" width="126.027" height="57.559" rx="11" transform="translate(210.333 1152.627)" fill="#e6faee"/>
      <text id="Elementos_narrativos." data-name="Elementos 
narrativos." transform="translate(229.536 1073.272)" fill="#12263f" font-size="16" font-family="Roboto-Regular, Roboto"><tspan x="0" y="0">Elementos </tspan><tspan x="0" y="24">narrativos.</tspan></text>
      <text id="_Importancia." data-name=" Importancia." transform="translate(230.772 1136.184)" fill="#12263f" font-size="16" font-family="Roboto-Regular, Roboto"><tspan x="0" y="0" xml:space="preserve"> Importancia.</tspan></text>
      <text id="Conexiones_emocionales." data-name="Conexiones 
emocionales." transform="translate(230.771 1175.094)" fill="#12263f" font-size="16" font-family="Roboto-Regular, Roboto"><tspan x="0" y="0">Conexiones </tspan><tspan x="0" y="24">emocionales.</tspan></text>
      <text id="contiene-6" data-name="contiene" transform="translate(228.685 1016.404)" fill="#12263f" font-size="16" font-family="Roboto-Regular, Roboto"><tspan x="0" y="0">contiene</tspan></text>
      <path id="Trazado_917883" data-name="Trazado 917883" d="M-10775.877-8792.706v22.185h-74.485v137.17" transform="translate(11037.195 9813.706)" fill="none" stroke="#114d74" stroke-width="2"/>
      <g id="Grupo_1113617" data-name="Grupo 1113617" transform="translate(186.833 1090.012) rotate(-90)">
        <path id="Trazado_873496-25" data-name="Trazado 873496" d="M-11801-8646v19.46" transform="translate(11808.414 8646.002)" fill="none" stroke="#114d74" stroke-width="2"/>
        <g id="Grupo_1099075-25" data-name="Grupo 1099075" transform="translate(0 8.488)">
          <g id="Grupo_1099074-25" data-name="Grupo 1099074" clip-path="url(#clip-path-8)">
            <path id="Trazado_873497-25" data-name="Trazado 873497" d="M14.883.857A14.773,14.773,0,0,0,7.7,13.539,14.772,14.772,0,0,0,.514.857" transform="translate(-0.284 -0.474)" fill="none" stroke="#114d74" stroke-miterlimit="10" stroke-width="2"/>
          </g>
        </g>
      </g>
      <g id="Grupo_1113630" data-name="Grupo 1113630" transform="translate(186.833 1137.909) rotate(-90)">
        <path id="Trazado_873496-26" data-name="Trazado 873496" d="M-11801-8646v19.46" transform="translate(11808.414 8646.002)" fill="none" stroke="#114d74" stroke-width="2"/>
        <g id="Grupo_1099075-26" data-name="Grupo 1099075" transform="translate(0 8.488)">
          <g id="Grupo_1099074-26" data-name="Grupo 1099074" clip-path="url(#clip-path-8)">
            <path id="Trazado_873497-26" data-name="Trazado 873497" d="M14.883.857A14.773,14.773,0,0,0,7.7,13.539,14.772,14.772,0,0,0,.514.857" transform="translate(-0.284 -0.474)" fill="none" stroke="#114d74" stroke-miterlimit="10" stroke-width="2"/>
          </g>
        </g>
      </g>
      <g id="Grupo_1113631" data-name="Grupo 1113631" transform="translate(186.833 1183.303) rotate(-90)">
        <path id="Trazado_873496-27" data-name="Trazado 873496" d="M-11801-8646v19.46" transform="translate(11808.414 8646.002)" fill="none" stroke="#114d74" stroke-width="2"/>
        <g id="Grupo_1099075-27" data-name="Grupo 1099075" transform="translate(0 8.488)">
          <g id="Grupo_1099074-27" data-name="Grupo 1099074" clip-path="url(#clip-path-8)">
            <path id="Trazado_873497-27" data-name="Trazado 873497" d="M14.883.857A14.773,14.773,0,0,0,7.7,13.539,14.772,14.772,0,0,0,.514.857" transform="translate(-0.284 -0.474)" fill="none" stroke="#114d74" stroke-miterlimit="10" stroke-width="2"/>
          </g>
        </g>
      </g>
      <g id="Grupo_1113643" data-name="Grupo 1113643" transform="translate(-0.25)">
        <rect id="Rectángulo_411197" data-name="Rectángulo 411197" width="119.471" height="48.01" rx="11" transform="translate(201.583 951.257)" fill="#85e5aa"/>
        <text id="ng" transform="translate(259.185 981.831)" fill="#12263f" font-size="16" font-family="Roboto-BoldItalic, Roboto" font-weight="700" font-style="italic"><tspan x="-40.625" y="0">Storytelling</tspan></text>
      </g>
    </g>
  </g>
</svg>
